<?xml version="1.0" encoding="UTF-8"?>
<svg id="Calque_2" data-name="Calque 2" xmlns="http://www.w3.org/2000/svg" viewBox="0 0 42.72 42.72">
  <defs>
    <style>
      .cls-1 {
        fill: #ff9a00;
      }

      .cls-2 {
        fill: #300;
      }
    </style>
  </defs>
  <rect class="cls-2" width="42.72" height="42.72" rx="8.38" ry="8.38"/>
  <path class="cls-1" d="M20.28,27.08h-6.79l-1.39,4.29c-.04,.16-.18,.27-.35,.26h-3.43c-.2,0-.26-.11-.2-.33L14.01,14.38c.05-.18,.11-.38,.18-.6,.07-.38,.11-.78,.11-1.19-.02-.09,.05-.18,.15-.2h4.72c.15,0,.22,.05,.24,.15l6.66,18.79c.05,.2,0,.29-.18,.29h-3.81c-.13,.02-.26-.07-.29-.2l-1.5-4.34Zm-5.73-3.7h4.63c-.11-.38-.26-.84-.42-1.31-.16-.49-.33-1.02-.49-1.57-.18-.57-.35-1.11-.53-1.68s-.35-1.09-.49-1.62c-.15-.51-.27-.98-.4-1.42h-.04c-.16,.78-.36,1.57-.62,2.35-.27,.88-.55,1.79-.84,2.7-.26,.93-.53,1.79-.8,2.55Zm15.58-7.79c-.6,.02-1.19-.22-1.62-.64-.42-.46-.64-1.06-.62-1.68-.02-.62,.22-1.2,.66-1.62s1.02-.64,1.62-.64c.71,0,1.26,.22,1.66,.64,.4,.44,.62,1.02,.6,1.62,.02,.62-.2,1.22-.64,1.68-.42,.44-1.04,.67-1.66,.64h0Zm-2.04,15.83v-14.04c0-.18,.07-.26,.24-.26h3.61c.16,0,.24,.09,.24,.26v14.04c0,.2-.07,.29-.24,.29h-3.57c-.18,0-.27-.11-.27-.29Z"/>
</svg>