<?xml version="1.0" encoding="UTF-8"?>
<svg id="Calque_2" data-name="Calque 2" xmlns="http://www.w3.org/2000/svg" viewBox="0 0 41.62 41.7">
  <defs>
    <style>
      .cls-1 {
        fill: #fff;
      }

      .cls-2 {
        fill: #3ca7df;
      }
    </style>
  </defs>
  <path class="cls-2" d="M.08,22.36c.74,10.31,8.96,18.52,19.26,19.26V22.36H.08Z"/>
  <path class="cls-2" d="M22.36,41.62c10.31-.74,18.52-8.96,19.26-19.26H22.36v19.26Z"/>
  <path class="cls-2" d="M19.34,.08C9.03,.82,.82,9.03,.08,19.34H19.34V.08Z"/>
  <path class="cls-2" d="M41.62,19.34C40.88,9.03,32.67,.82,22.36,.08V19.34h19.26Z"/>
  <path class="cls-1" d="M22.36,19.34v3.02h19.19c.04-.5,.08-1,.08-1.51s-.04-1.01-.08-1.51H22.36Z"/>
  <path class="cls-1" d="M19.34,19.34H.08c-.04,.5-.08,1-.08,1.51s.04,1.01,.08,1.51H19.34v-3.02Z"/>
  <path class="cls-1" d="M19.34,22.36v19.26c.5,.04,1,.08,1.51,.08s1.01-.04,1.51-.08V22.36h-3.02Z"/>
  <path class="cls-1" d="M22.36,19.34V.08c-.5-.04-1-.08-1.51-.08s-1.01,.04-1.51,.08V19.34h3.02Z"/>
  <rect class="cls-1" x="19.34" y="19.34" width="3.02" height="3.02"/>
</svg>