<?xml version="1.0" encoding="UTF-8"?>
<svg id="Calque_3" data-name="Calque 3" xmlns="http://www.w3.org/2000/svg" viewBox="0 0 42.72 42.72">
  <defs>
    <style>
      .cls-1 {
        fill: #ffda44;
      }

      .cls-2 {
        fill: #338af3;
      }

      .cls-3 {
        fill: #d80027;
      }

      .cls-4 {
        fill: #ff9811;
      }

      .cls-5 {
        fill: #300;
      }

      .cls-6 {
        fill: #eee;
      }
    </style>
  </defs>
  <polygon class="cls-5" points="42.36 9.36 42.72 9.41 42.72 9.36 42.36 9.36"/>
  <polygon class="cls-5" points="0 9.36 0 9.41 .36 9.36 0 9.36"/>
  <path class="cls-1" d="M14.39,15.57l-.15-.3-.38-.09c-.38,0-.75,.38-.75,.75,0,.24,.1,.43,.24,.55,.22-.35,.57-.66,1.04-.91Z"/>
  <path class="cls-1" d="M20.38,16.49c.15-.13,.23-.32,.23-.57,0-.38-.28-.75-.75-.75l-.38,.09-.15,.3c.47,.25,.83,.57,1.04,.93Z"/>
  <path class="cls-1" d="M16.11,14.34c-.11-.06-.23-.11-.38-.11-.38,0-.75,.38-.75,.75,0,.11,.02,.21,.06,.3,.33-.11,.68-.2,1.06-.25v-.69Z"/>
  <path class="cls-1" d="M.36,9.36l-.36,.04v23.96H42.72V9.41l-.36-.04H.36Zm24.56,14.62h-.56v2.25c.41,0,.75,.34,.75,.75s-.34,.75-.75,.75c.41,0,.75,.34,.75,.75s-.34,.75-.75,.75h-1.5c-.41,0-.75-.34-.75-.75s.34-.75,.75-.75c-.41,0-.75-.34-.75-.75s.34-.75,.75-.75v-2.25h-.56c-.21,0-.38-.17-.38-.38s.17-.38,.38-.38h.56v-1.5h-1.5v3.75c0,.21-.04,.41-.09,.6,0,0,0,.01,0,.02-.15,.53-.48,.98-.93,1.27-.83,.68-2.07,1.12-3.48,1.12s-2.67-.45-3.5-1.13c-.05-.03-.11-.05-.16-.09-.18-.18-.34-.38-.47-.59,0-.01-.02-.03-.03-.04-.1-.16-.17-.32-.23-.5,0-.02-.02-.04-.02-.06-.05-.18-.09-.38-.09-.59v-3.75h-1.5v1.5h.56c.21,0,.38,.17,.38,.38s-.17,.38-.38,.38h-.56v2.25c.41,0,.75,.34,.75,.75s-.34,.75-.75,.75c.41,0,.75,.34,.75,.75s-.34,.75-.75,.75h-1.5c-.41,0-.75-.34-.75-.75s.34-.75,.75-.75c-.41,0-.75-.34-.75-.75s.34-.75,.75-.75v-2.25h-.56c-.21,0-.38-.17-.38-.38s.17-.38,.38-.38h.56v-1.5h-.56c-.21,0-.38-.17-.38-.38s.17-.38,.38-.38h.56v-2.25c-.41,0-.75-.34-.75-.75s.34-.75,.75-.75v-.75c0-.41,.34-.75,.75-.75s.75,.34,.75,.75v.75c.41,0,.75,.34,.75,.75s-.34,.75-.75,.75v2.25h1.5v-2.25h1.5v-.75l-.75-.75s0,0,0-.01c-.45-.26-.75-.73-.75-1.3,0-.84,.66-1.5,1.5-1.5l.47,.09c.19-.56,.75-1.03,1.41-1.03,.13,0,.26,.02,.38,.05v-.8h1.5v.86c.74-.19,1.51,.19,1.78,.92,.01,0,.02,0,.03-.01,.79-.25,1.63,.18,1.89,.97,.22,.7-.09,1.44-.72,1.78l-.73,.73v.75h1.5v2.25h1.5v-2.25c-.41,0-.75-.34-.75-.75s.34-.75,.75-.75v-.75c0-.41,.34-.75,.75-.75s.75,.34,.75,.75v.75c.41,0,.75,.34,.75,.75s-.34,.75-.75,.75v2.25h.56c.21,0,.38,.17,.38,.38s-.17,.38-.38,.38h-.56v1.5h.56c.21,0,.38,.17,.38,.38s-.17,.38-.38,.38Z"/>
  <path class="cls-1" d="M18.69,15.29c.03-.09,.05-.19,.05-.3,0-.38-.28-.75-.75-.75-.13,0-.26,.06-.38,.13v.66c.39,.05,.74,.14,1.08,.26Z"/>
  <path class="cls-3" d="M21.36,6.74l21,2.62h.36v-.98c0-4.63-3.75-8.38-8.38-8.38H8.38C3.75,0,0,3.75,0,8.38v.98H.36l21-2.62Z"/>
  <path class="cls-3" d="M0,34.07v.27c0,4.63,3.75,8.38,8.38,8.38h25.96c4.63,0,8.38-3.75,8.38-8.38v-.27l-21.36,2.67L0,34.07Z"/>
  <polygon class="cls-3" points=".36 9.36 42.36 9.36 21.36 6.74 .36 9.36"/>
  <polygon class="cls-3" points="21.36 36.74 42.72 34.07 42.72 33.36 0 33.36 0 34.07 21.36 36.74"/>
  <rect class="cls-6" x="9.36" y="23.99" width="1.5" height="2.25"/>
  <rect class="cls-6" x="9.36" y="18.74" width="1.5" height="2.25"/>
  <rect class="cls-6" x="22.86" y="18.74" width="1.5" height="2.25"/>
  <rect class="cls-6" x="22.86" y="23.99" width="1.5" height="2.25"/>
  <rect class="cls-6" x="9.36" y="21.74" width="1.5" height="1.5"/>
  <rect class="cls-6" x="22.86" y="21.74" width="1.5" height="1.5"/>
  <path class="cls-6" d="M12.47,26.14s-.02-.04-.02-.06c0,.02,.02,.04,.02,.06Z"/>
  <path class="cls-6" d="M12.73,26.67s-.02-.03-.03-.04c0,.01,.02,.03,.03,.04Z"/>
  <path class="cls-6" d="M21.27,26.08s0,.01,0,.02c0,0,0-.01,0-.02Z"/>
  <path class="cls-6" d="M16.86,25.49c0,.75-.28,1.31-.84,1.78-.28,.19-.6,.32-.94,.38-.31,.08-.63,.08-.94,0-.28-.04-.54-.15-.78-.29,.82,.69,2.08,1.13,3.5,1.13s2.65-.44,3.48-1.12c-.35,.23-.77,.37-1.23,.37-1.24,0-2.25-1.01-2.25-2.25Z"/>
  <path class="cls-3" d="M10.86,16.49c0-.41-.34-.75-.75-.75s-.75,.34-.75,.75v.75h1.5v-.75Z"/>
  <path class="cls-3" d="M24.36,16.49c0-.41-.34-.75-.75-.75s-.75,.34-.75,.75v.75h1.5v-.75Z"/>
  <path class="cls-3" d="M21.36,25.49c0,.2-.03,.4-.09,.6,.05-.19,.09-.39,.09-.6Z"/>
  <path class="cls-3" d="M20.34,27.37c.45-.29,.78-.74,.93-1.27-.15,.48-.48,.9-.93,1.27Z"/>
  <path class="cls-3" d="M21.36,25.49v-2.25h-1.55c.94,.55,1.55,1.35,1.55,2.25Z"/>
  <path class="cls-3" d="M19.81,23.24h-1.45c0,.83-.67,1.5-1.5,1.5v.75c0,1.24,1.01,2.25,2.25,2.25,.45,0,.87-.14,1.23-.37,.44-.36,.78-.79,.93-1.27,0,0,0-.01,0-.02,.06-.19,.09-.39,.09-.6,0-.9-.61-1.7-1.55-2.25Zm.43,2.25c0,.66-.47,1.12-1.12,1.12s-1.12-.47-1.12-1.12v-1.12h2.25v1.12Z"/>
  <path class="cls-4" d="M11.61,17.99c0-.41-.34-.75-.75-.75,0,.41-.34,.75-.75,.75s-.75-.34-.75-.75c-.41,0-.75,.34-.75,.75s.34,.75,.75,.75h1.5c.41,0,.75-.34,.75-.75Z"/>
  <path class="cls-4" d="M10.11,17.99c.41,0,.75-.34,.75-.75h-1.5c0,.41,.34,.75,.75,.75Z"/>
  <path class="cls-4" d="M25.11,17.99c0-.41-.34-.75-.75-.75,0,.41-.34,.75-.75,.75s-.75-.34-.75-.75c-.41,0-.75,.34-.75,.75s.34,.75,.75,.75h1.5c.41,0,.75-.34,.75-.75Z"/>
  <path class="cls-4" d="M23.61,17.99c.41,0,.75-.34,.75-.75h-1.5c0,.41,.34,.75,.75,.75Z"/>
  <path class="cls-4" d="M8.61,26.99c0,.41,.34,.75,.75,.75h1.5c.41,0,.75-.34,.75-.75s-.34-.75-.75-.75h-1.5c-.41,0-.75,.34-.75,.75Z"/>
  <path class="cls-4" d="M22.11,26.99c0,.41,.34,.75,.75,.75h1.5c.41,0,.75-.34,.75-.75s-.34-.75-.75-.75h-1.5c-.41,0-.75,.34-.75,.75Z"/>
  <path class="cls-4" d="M12.45,26.07c-.06-.19-.09-.39-.09-.59,0,.21,.04,.4,.09,.59Z"/>
  <path class="cls-4" d="M12.73,26.67c.14,.21,.29,.41,.47,.59v-.04c-.18-.17-.35-.35-.47-.55Z"/>
  <path class="cls-4" d="M13.2,23.75v-.51h-.84v2.25c0-.65,.32-1.25,.84-1.74Z"/>
  <path class="cls-4" d="M12.7,26.63c-.1-.16-.17-.33-.23-.5,.06,.18,.14,.34,.23,.5Z"/>
  <path class="cls-4" d="M13.2,27.22v-3.48c-.53,.49-.84,1.09-.84,1.74,0,.2,.03,.4,.09,.59,0,.02,.02,.04,.02,.06,.06,.17,.13,.34,.23,.5,0,.01,.02,.03,.03,.04,.13,.2,.29,.38,.47,.55Z"/>
  <path class="cls-4" d="M16.02,27.27c.56-.47,.84-1.03,.84-1.78v-.75c-.31,0-.6-.1-.84-.26v2.79Z"/>
  <path class="cls-4" d="M14.14,23.24v4.41c.31,.08,.63,.08,.94,0v-4.41h-.94Z"/>
  <path class="cls-3" d="M8.8,23.61h.56v-.38h-.56c-.21,0-.38,.17-.38,.38s.17,.38,.38,.38h.56v-.38h-.56Z"/>
  <path class="cls-3" d="M11.42,23.61h-.56v.38h.56c.21,0,.38-.17,.38-.38s-.17-.38-.38-.38h-.56v.38h.56Z"/>
  <path class="cls-3" d="M8.8,21.36h.56v-.38h-.56c-.21,0-.38,.17-.38,.38s.17,.38,.38,.38h.56v-.38h-.56Z"/>
  <rect class="cls-3" x="10.86" y="20.99" width="1.5" height=".38"/>
  <path class="cls-3" d="M24.92,23.24h-.56v.38h0v.38h.56c.21,0,.38-.17,.38-.38s-.17-.38-.38-.38Z"/>
  <rect class="cls-3" x="21.36" y="20.99" width="1.5" height=".38"/>
  <rect class="cls-3" x="10.86" y="21.36" width="1.5" height=".38"/>
  <path class="cls-3" d="M22.3,23.61h.56v-.38h-.56c-.21,0-.38,.17-.38,.38s.17,.38,.38,.38h.56v-.38h-.56Z"/>
  <rect class="cls-3" x="21.36" y="21.36" width="1.5" height=".38"/>
  <path class="cls-3" d="M24.92,21.36h-.56v.38h.56c.21,0,.38-.17,.38-.38s-.17-.38-.38-.38h-.56v.38h.56Z"/>
  <rect class="cls-3" x="9.36" y="23.24" width="1.5" height=".38"/>
  <rect class="cls-3" x="9.36" y="23.61" width="1.5" height=".38"/>
  <rect class="cls-3" x="22.86" y="20.99" width="1.5" height=".38"/>
  <rect class="cls-3" x="9.36" y="20.99" width="1.5" height=".38"/>
  <rect class="cls-3" x="9.36" y="21.36" width="1.5" height=".38"/>
  <rect class="cls-3" x="22.86" y="23.61" width="1.5" height=".38"/>
  <rect class="cls-3" x="22.86" y="23.24" width="1.5" height=".38"/>
  <rect class="cls-3" x="22.86" y="21.36" width="1.5" height=".38"/>
  <path class="cls-6" d="M17.98,14.24c.47,0,.75,.38,.75,.75,0,.11-.02,.21-.05,.3,.23,.08,.45,.17,.65,.28l.15-.3,.38-.09c.47,0,.75,.38,.75,.75,0,.25-.09,.44-.23,.57,.14,.23,.23,.48,.23,.74l-.02,.02c.62-.34,.94-1.08,.72-1.78-.25-.79-1.1-1.22-1.89-.97-.01,0-.02,0-.03,.01-.27-.73-1.05-1.11-1.78-.92v.78c.12-.08,.24-.13,.38-.13Z"/>
  <path class="cls-6" d="M13.11,15.92c0-.38,.38-.75,.75-.75l.38,.09,.15,.3c.2-.11,.42-.2,.66-.28-.04-.09-.06-.19-.06-.3,0-.38,.38-.75,.75-.75,.15,0,.27,.05,.38,.11v-.81c-.12-.03-.24-.05-.38-.05-.66,0-1.22,.47-1.41,1.03l-.47-.09c-.84,0-1.5,.66-1.5,1.5,0,.57,.3,1.04,.75,1.3,0-.26,.09-.51,.24-.75-.14-.13-.24-.32-.24-.55Z"/>
  <path class="cls-3" d="M17.98,25.49c0,.66,.47,1.12,1.12,1.12s1.12-.47,1.12-1.12v-1.12h-2.25v1.12Z"/>
  <path class="cls-4" d="M16.48,15.01s0-.01,0-.02c0-.26-.14-.51-.38-.64v.69c.12-.02,.25-.02,.37-.02Z"/>
  <path class="cls-4" d="M17.61,14.37c-.21,.14-.38,.37-.38,.62,0,0,0,.01,0,.02,.12,0,.25,0,.37,.02v-.66Z"/>
  <path class="cls-4" d="M16.86,14.05c.16-.19,.37-.33,.6-.41,.05-.02,.1-.03,.15-.04v-.86h-1.5v.8c.3,.08,.55,.24,.75,.51Z"/>
  <path class="cls-4" d="M16.48,14.99s0,.01,0,.02c.13,0,.25-.02,.38-.02s.25,.02,.38,.02c0,0,0-.01,0-.02,0-.24,.16-.47,.38-.62v-.78s-.1,.02-.15,.04c-.23,.09-.44,.23-.6,.41-.2-.27-.45-.44-.75-.51v.81c.23,.14,.38,.38,.38,.64Z"/>
  <path class="cls-6" d="M16.86,20.99h1.31v-.56c0-.52,.42-.94,.94-.94s.94,.42,.94,.94v.56h1.31v-2.25h-4.5v2.25Z"/>
  <path class="cls-6" d="M19.11,22.49c-.45,0-.81-.33-.9-.75h-1.35c.62,0,1.15,.37,1.38,.91,.59,.13,1.12,.33,1.57,.59h1.55v-1.5h-1.35c-.09,.42-.45,.75-.9,.75Z"/>
  <path class="cls-6" d="M19.11,23.24h.7c-.45-.26-.98-.47-1.57-.59,.08,.18,.12,.38,.12,.59h.75Z"/>
  <path class="cls-6" d="M18.17,21.36h-1.31v.38h1.35c-.01-.06-.04-.12-.04-.19v-.19Z"/>
  <rect class="cls-6" x="20.05" y="20.99" width="1.31" height=".38"/>
  <path class="cls-6" d="M20.05,21.36v.19c0,.07-.02,.12-.04,.19h1.35v-.38h-1.31Z"/>
  <rect class="cls-6" x="16.86" y="20.99" width="1.31" height=".38"/>
  <path class="cls-3" d="M15.73,15.74c.15,0,.27-.04,.38-.09v-.61c-.38,.05-.73,.14-1.06,.25,.12,.29,.4,.45,.69,.45Z"/>
  <path class="cls-3" d="M14.58,16.16s.03-.09,.03-.14l-.22-.45c-.46,.25-.82,.56-1.04,.91,.14,.13,.32,.2,.51,.2,.14,0,.28-.05,.4-.12,.04-.18,.15-.33,.32-.4Z"/>
  <path class="cls-3" d="M19.14,16.16c.16,.07,.28,.22,.32,.4,.12,.07,.26,.12,.4,.12,.22,0,.39-.07,.52-.18-.21-.36-.58-.68-1.04-.93l-.22,.45c0,.05,.02,.09,.03,.14Z"/>
  <path class="cls-3" d="M17.61,15.62c.12,.07,.24,.11,.38,.11,.36,0,.6-.16,.7-.45-.33-.11-.69-.21-1.08-.26v.59Z"/>
  <path class="cls-3" d="M17.02,16.14c-.05-.04-.11-.08-.16-.13-.05,.05-.11,.08-.16,.13,.05-.02,.1-.03,.16-.03s.11,.02,.16,.03Z"/>
  <polygon class="cls-3" points="13.86 20.24 13.11 20.24 13.11 19.49 16.11 19.49 16.11 20.24 15.36 20.24 15.36 20.99 16.86 20.99 16.86 18.74 13.86 18.74 12.36 18.74 12.36 20.99 13.86 20.99 13.86 20.24"/>
  <path class="cls-3" d="M13.91,23.24c.45-.26,.98-.47,1.57-.59,.02-.06,.06-.11,.09-.16h-2.46v-.75h-.75v1.5h1.55Z"/>
  <path class="cls-3" d="M20.59,17.25c-.08,.04-.16,.08-.25,.11-.44,.14-.89,.06-1.25-.16-.05,.02-.11,.03-.17,.03-.31,0-.56-.25-.56-.56,0-.1,.04-.2,.09-.28-.39,.14-.8,.1-1.16-.08,.08,.1,.14,.22,.14,.36,0,.31-.25,.56-.56,.56s-.56-.25-.56-.56c0-.14,.05-.26,.14-.36-.36,.18-.77,.21-1.16,.08,.05,.08,.09,.18,.09,.28,0,.31-.25,.56-.56,.56-.06,0-.11-.02-.16-.03-.23,.14-.49,.22-.78,.22s-.53-.08-.75-.2c0,0,0,0,0,.01l.75,.75h6l.73-.73Z"/>
  <path class="cls-3" d="M16.11,21.94c.22-.13,.48-.21,.75-.21h-.75v.21Z"/>
  <path class="cls-3" d="M15.08,23.24h.28c0-.21,.04-.41,.12-.59-.59,.13-1.12,.33-1.57,.59h1.17Z"/>
  <rect class="cls-3" x="12.36" y="20.99" width="1.5" height=".38"/>
  <rect class="cls-3" x="15.36" y="20.99" width="1.5" height=".38"/>
  <polygon class="cls-3" points="15.36 21.36 15.36 21.74 16.11 21.74 16.86 21.74 16.86 21.36 15.36 21.36"/>
  <polygon class="cls-3" points="13.86 21.74 13.86 21.36 12.36 21.36 12.36 21.74 13.11 21.74 13.86 21.74"/>
  <path class="cls-3" d="M18.92,16.11c.08,0,.15,.02,.22,.05-.01-.05-.03-.09-.03-.14l.22-.45c-.2-.11-.42-.2-.65-.28-.1,.28-.34,.45-.7,.45-.13,0-.26-.05-.38-.11v.11h-1.5v-.09c-.11,.05-.23,.09-.38,.09-.29,0-.57-.17-.69-.45-.24,.08-.46,.17-.66,.28l.22,.45c0,.05-.02,.09-.03,.14,.07-.03,.14-.05,.22-.05,.21,0,.38,.12,.48,.28,.39,.14,.8,.1,1.16-.08,.07-.08,.16-.14,.26-.17,.05-.04,.11-.08,.16-.13,.05,.05,.11,.08,.16,.13,.11,.03,.2,.09,.26,.17,.36,.18,.77,.21,1.16,.08,.1-.17,.27-.28,.48-.28Z"/>
  <path class="cls-3" d="M14.64,17.2c-.23-.07-.4-.28-.4-.53,0-.04,.02-.08,.02-.12-.12,.07-.26,.12-.4,.12-.19,0-.37-.07-.51-.2-.14,.24-.24,.48-.24,.75,.22,.12,.47,.2,.75,.2s.55-.08,.78-.22Z"/>
  <path class="cls-3" d="M20.38,16.49c-.13,.11-.3,.18-.52,.18-.14,0-.28-.05-.4-.12,0,.04,.02,.08,.02,.12,0,.25-.17,.46-.39,.53,.36,.22,.81,.3,1.25,.16,.09-.03,.17-.07,.25-.11l.02-.02c0-.26-.09-.51-.23-.74Z"/>
  <path class="cls-3" d="M16.11,15.65c.23-.11,.36-.33,.37-.64-.12,0-.25,0-.37,.02v.61Z"/>
  <path class="cls-3" d="M17.61,15.62v-.59c-.12-.01-.25-.02-.37-.02,0,.29,.16,.5,.37,.61Z"/>
  <path class="cls-3" d="M16.11,15.65v.09h1.5v-.11c-.21-.12-.36-.32-.37-.61-.13,0-.25-.02-.38-.02s-.25,.02-.38,.02c0,.31-.14,.53-.37,.64Z"/>
  <path class="cls-3" d="M19.11,22.49c.45,0,.81-.33,.9-.75h-1.8c.09,.42,.45,.75,.9,.75Z"/>
  <path class="cls-3" d="M20.05,20.42c0-.52-.42-.94-.94-.94s-.94,.42-.94,.94v.56h1.88v-.56Z"/>
  <path class="cls-3" d="M18.17,21.55c0,.07,.02,.12,.04,.19h1.8c.01-.06,.04-.12,.04-.19v-.19h-1.88v.19Z"/>
  <rect class="cls-3" x="18.17" y="20.99" width="1.88" height=".38"/>
  <polygon class="cls-4" points="19.86 18.74 19.86 17.99 13.86 17.99 13.86 18.74 16.86 18.74 19.86 18.74"/>
  <path class="cls-4" d="M16.11,21.94v-.21h-3v.75h2.46c.13-.23,.32-.41,.54-.54Z"/>
  <polygon class="cls-4" points="15.36 20.24 16.11 20.24 16.11 19.49 13.11 19.49 13.11 20.24 13.86 20.24 13.86 20.99 15.36 20.99 15.36 20.24"/>
  <rect class="cls-4" x="13.86" y="20.99" width="1.5" height=".38"/>
  <rect class="cls-4" x="13.86" y="21.36" width="1.5" height=".38"/>
  <path class="cls-1" d="M14.58,16.16c-.16,.07-.28,.22-.32,.4,.16-.09,.27-.23,.32-.4Z"/>
  <path class="cls-1" d="M14.64,17.2c.05,.02,.1,.03,.16,.03,.31,0,.56-.25,.56-.56,0-.1-.04-.2-.09-.28,0,0,0,0,0,0-.11,.37-.34,.64-.63,.81Z"/>
  <path class="cls-1" d="M14.8,16.11c-.08,0-.15,.02-.22,.05-.05,.17-.16,.3-.32,.4,0,.04-.02,.08-.02,.12,0,.25,.17,.46,.4,.53,.29-.17,.52-.44,.63-.81,0,0,0,0,0,0-.1-.17-.27-.28-.48-.28Z"/>
  <path class="cls-1" d="M16.86,16.11c-.06,0-.11,.02-.16,.03-.08,.07-.17,.13-.26,.17-.08,.1-.14,.22-.14,.36,0,.31,.25,.56,.56,.56s.56-.25,.56-.56c0-.14-.05-.26-.14-.36-.09-.05-.18-.11-.26-.17-.05-.02-.1-.03-.16-.03Z"/>
  <path class="cls-1" d="M17.02,16.14c.08,.07,.17,.13,.26,.17-.07-.08-.16-.14-.26-.17Z"/>
  <path class="cls-1" d="M16.43,16.32c.09-.05,.18-.11,.26-.17-.11,.03-.2,.09-.26,.17Z"/>
  <path class="cls-1" d="M18.45,16.39s0,0,0,0c-.05,.08-.09,.18-.09,.28,0,.31,.25,.56,.56,.56,.06,0,.12-.02,.17-.03-.29-.18-.53-.46-.64-.81Z"/>
  <path class="cls-1" d="M19.14,16.16c.05,.17,.16,.3,.32,.4-.04-.18-.15-.33-.32-.4Z"/>
  <path class="cls-1" d="M19.48,16.67s-.02-.08-.02-.12c-.16-.09-.27-.23-.32-.4-.07-.03-.14-.05-.22-.05-.21,0-.38,.12-.48,.28,0,0,0,0,0,0,.11,.35,.35,.63,.64,.81,.23-.07,.39-.28,.39-.53Z"/>
  <path class="cls-3" d="M13.91,23.24h-.71l.21,.34c.15-.12,.32-.24,.5-.34Z"/>
  <path class="cls-3" d="M13.2,27.27c.05,.03,.11,.06,.16,.09-.05-.04-.1-.07-.14-.11l-.02,.03Z"/>
  <path class="cls-3" d="M13.67,26.7l-.45,.54s.09,.07,.14,.11c.24,.14,.5,.25,.78,.29l-.47-.94Z"/>
  <path class="cls-3" d="M15.08,27.64c.34-.05,.66-.18,.94-.38l-.47-.56-.47,.94Z"/>
  <path class="cls-3" d="M15.08,23.24l.47,.75v-.02c-.11-.22-.19-.46-.19-.73h-.28Z"/>
  <path class="cls-3" d="M13.67,23.99l.47-.75h-.23c-.18,.1-.34,.22-.5,.34l.26,.41Z"/>
  <path class="cls-3" d="M13.2,27.22v.04l.02-.03s-.01-.01-.02-.02Z"/>
  <path class="cls-3" d="M13.2,23.24v.51c.06-.06,.14-.11,.21-.17l-.21-.34Z"/>
  <path class="cls-3" d="M13.67,23.99l-.26-.41c-.07,.06-.15,.11-.21,.17v3.48s.01,.01,.02,.02l.45-.54,.47,.94v-4.41l-.47,.75Z"/>
  <path class="cls-3" d="M15.56,23.97v.02s-.48-.75-.48-.75v4.41l.47-.94,.47,.56v-2.79c-.19-.13-.34-.31-.46-.51Z"/>
  <path class="cls-2" d="M16.86,24.74c.83,0,1.5-.67,1.5-1.5h-1.5v1.5Z"/>
  <path class="cls-2" d="M16.02,23.24v1.24c.24,.16,.53,.26,.84,.26v-1.5h-.84Z"/>
  <path class="cls-2" d="M18.24,22.64c-.23-.53-.76-.91-1.38-.91v.75c.48,0,.94,.06,1.38,.16Z"/>
  <path class="cls-2" d="M16.86,23.24h1.5c0-.21-.04-.41-.12-.59-.44-.09-.89-.16-1.38-.16v.75Z"/>
  <path class="cls-2" d="M16.11,22.49h-.54c-.03,.05-.06,.1-.09,.16,.44-.09,.89-.16,1.38-.16v-.75c-.27,0-.53,.08-.75,.21v.54Z"/>
  <path class="cls-2" d="M16.02,23.24h.84v-.75c-.48,0-.94,.06-1.38,.16-.08,.18-.12,.38-.12,.59h.66Z"/>
  <path class="cls-2" d="M16.11,21.94c-.23,.13-.41,.32-.54,.54h.54v-.54Z"/>
  <path class="cls-2" d="M15.56,23.97l.46-.73h-.66c0,.27,.08,.51,.2,.73Z"/>
  <path class="cls-2" d="M16.02,24.47v-1.24l-.46,.73c.11,.2,.27,.38,.46,.51Z"/>
  <path class="cls-2" d="M22.11,28.49c0,.41,.34,.75,.75,.75h1.5c.41,0,.75-.34,.75-.75s-.34-.75-.75-.75h-1.5c-.41,0-.75,.34-.75,.75Z"/>
  <path class="cls-2" d="M8.61,28.49c0,.41,.34,.75,.75,.75h1.5c.41,0,.75-.34,.75-.75s-.34-.75-.75-.75h-1.5c-.41,0-.75,.34-.75,.75Z"/>
</svg>