<?xml version="1.0" encoding="UTF-8"?>
<svg id="Calque_2" data-name="Calque 2" xmlns="http://www.w3.org/2000/svg" xmlns:xlink="http://www.w3.org/1999/xlink" viewBox="0 0 42.72 42.72">
  <defs>
    <style>
      .cls-1 {
        fill: #fff;
      }

      .cls-2 {
        opacity: .07;
      }

      .cls-2, .cls-3 {
        isolation: isolate;
      }

      .cls-4 {
        fill: #e34f26;
      }

      .cls-3 {
        opacity: .05;
      }

      .cls-5 {
        fill: #d6e0e9;
      }

      .cls-6 {
        fill: url(#Dégradé_sans_nom_7);
      }

      .cls-7 {
        fill: #35c1f1;
      }

      .cls-8 {
        fill: #ef652a;
      }
    </style>
    <linearGradient id="Dégradé_sans_nom_7" data-name="Dégradé sans nom 7" x1="291.56" y1="-295.27" x2="298.79" y2="-315.12" gradientTransform="translate(-282 -284.13) scale(1 -1)" gradientUnits="userSpaceOnUse">
      <stop offset="0" stop-color="#2aa4f4"/>
      <stop offset="1" stop-color="#007ad9"/>
    </linearGradient>
  </defs>
  <rect class="cls-1" width="42.72" height="42.72" rx="8.38" ry="8.38"/>
  <g>
    <path class="cls-6" d="M5.43,15.63l1.19,13.48c.05,.56,.44,1.03,.98,1.19l4.82,1.38c.41,.12,.84,.12,1.24,0l4.82-1.38c.54-.15,.93-.63,.98-1.19l1.19-13.48c.05-.53-.37-.99-.9-.99H6.33c-.53,0-.95,.46-.9,.99Z"/>
    <path class="cls-7" d="M13.04,16v14.44l4.47-1.28c.36-.1,.62-.42,.65-.79l1.03-11.88c.02-.26-.19-.49-.45-.49h-5.71Z"/>
    <path class="cls-1" d="M17.15,18.27h-4.12v1.81h2.22l-.14,1.81h-2.08v1.81h1.99l-.14,2.04-1.86,.63v1.9l3.58-1.18,.32-5.21h0l.23-3.62Z"/>
    <path class="cls-5" d="M13.04,18.27v1.81h-4.03l-.14-1.81h4.16Zm-2.08,3.62l.09,1.81h1.99v-1.81h-2.08Zm.18,2.72h-1.81l.14,2.49,3.58,1.18v-1.9l-1.86-.63-.05-1.13Z"/>
    <path class="cls-3" d="M17.15,18.27l-.23,3.62-.32,5.21-3.58,1.18-3.58-1.18-.14-2.49h1.81l.05,1.13,1.86,.63,1.86-.63,.14-2.04h-3.98l-.09-1.81h4.16l.14-1.81h-6.25l-.14-1.81h8.28m.48-.45H8.38l.04,.49,.14,1.81,.03,.42h6.18l-.07,.91h-4.22l.02,.48,.09,1.81,.02,.43h-1.77l.03,.48,.14,2.49,.02,.31,.29,.1,3.58,1.18,.14,.05,.14-.05,3.58-1.18,.29-.1,.02-.31,.32-5.21,.23-3.62,.03-.48h0Zm-6.07,6.34h2.97l-.08,1.25-1.42,.49-1.42-.48-.03-.82-.02-.43h0Z"/>
    <path class="cls-2" d="M17.15,18.27l-.23,3.62-.32,5.21-3.58,1.18-3.58-1.18-.14-2.49h1.81l.05,1.13,1.86,.63,1.86-.63,.14-2.04h-3.98l-.09-1.81h4.16l.14-1.81h-6.25l-.14-1.81h8.28m.24-.23H8.63l.02,.24,.14,1.81,.02,.21h6.21l-.1,1.36h-4.19v.24s.1,1.81,.1,1.81v.22h3.97l-.11,1.65-1.64,.56-1.64-.56-.04-.98v-.22h-2.28v.24s.15,2.49,.15,2.49v.15s.16,.05,.16,.05l3.58,1.18,.07,.02,.07-.02,3.58-1.18,.15-.05v-.15s.33-5.21,.33-5.21l.23-3.62v-.24h.01Z"/>
  </g>
  <g>
    <path class="cls-4" d="M23.41,29.46l-1.14-13.92c-.04-.54,.38-.99,.92-.99l13.2,.03c.54,0,.96,.46,.91,1l-1.2,13.89c-.03,.38-.29,.7-.66,.8l-5.34,1.55c-.16,.05-.34,.05-.5,0l-5.51-1.55c-.37-.1-.64-.43-.67-.81Z"/>
    <path class="cls-8" d="M29.84,29.17v-12.22c0-.51,.41-.92,.92-.92h4.34c.54,.02,.96,.48,.91,1.01l-.97,11.23c-.03,.38-.29,.7-.66,.8l-3.36,.98c-.59,.17-1.17-.27-1.17-.88Z"/>
    <path class="cls-1" d="M34.45,18.78v-.06c.06-.54-.37-1-.91-1h-7.61c-.54,0-.96,.46-.91,1l.36,3.98c.04,.47,.44,.83,.91,.83h4.79c.54,0,.97,.47,.91,1.01l-.09,.84c-.04,.38-.31,.69-.67,.79l-1.27,.34c-.16,.04-.33,.04-.49,0l-1.3-.38c-.37-.11-.63-.43-.66-.81h0c-.04-.48-.44-.85-.92-.85h-.06c-.54,0-.96,.46-.91,1l.12,1.39c.03,.38,.3,.7,.67,.81l3.06,.86c.16,.04,.33,.05,.49,0l3.09-.86c.37-.1,.63-.42,.67-.8l.38-4.27c.05-.54-.37-1-.91-1h-5.14c-.47,0-.87-.36-.91-.83l-.02-.16c-.05-.54,.37-1.01,.91-1.01h5.5c.47,0,.87-.36,.91-.83Z"/>
  </g>
</svg>