<?xml version="1.0" encoding="UTF-8"?>
<svg id="Calque_2" data-name="Calque 2" xmlns="http://www.w3.org/2000/svg" viewBox="0 0 42.72 42.72">
  <defs>
    <style>
      .cls-1 {
        fill: #333;
      }

      .cls-2 {
        fill: #ffd600;
      }
    </style>
  </defs>
  <rect class="cls-2" width="42.72" height="42.72" rx="8.38" ry="8.38"/>
  <path class="cls-1" d="M27.39,34.11c.6-.4,1.38-.25,1.84,.3,.53,.64,1.2,1.1,2.24,1.1,1.3,0,1.99-.65,1.99-1.54,0-1.07-.71-1.45-2.14-2.08l-.79-.34c-2.27-.96-3.78-2.17-3.78-4.72,0-2.35,1.8-4.13,4.61-4.13,1.4,0,2.53,.34,3.43,1.17,.65,.6,.53,1.67-.22,2.14l-.13,.08c-.51,.32-1.2,.33-1.63-.1-.4-.4-.86-.57-1.46-.57-.92,0-1.51,.58-1.51,1.34,0,.94,.58,1.32,1.93,1.9l.79,.34c2.67,1.14,4.18,2.3,4.18,4.92,0,2.82-2.22,4.36-5.21,4.36-2.19,0-3.68-.83-4.67-2.01-.53-.62-.39-1.57,.29-2.02l.23-.15h.01Zm-11.22,0c.54-.33,1.22-.24,1.67,.2s1,.72,1.7,.72c1.03,0,1.62-.41,1.62-1.99v-8.95c0-.75,.61-1.37,1.37-1.37h.51c.75,0,1.37,.61,1.37,1.37v9.45c0,3.28-1.9,4.77-4.68,4.77-1.82,0-3.27-.89-4.21-1.98-.54-.63-.36-1.6,.35-2.03l.31-.19h-.01Z"/>
</svg>