<?xml version="1.0" encoding="UTF-8"?>
<svg id="Calque_3" data-name="Calque 3" xmlns="http://www.w3.org/2000/svg" viewBox="0 0 42.72 42.72">
  <defs>
    <style>
      .cls-1 {
        fill: #d80027;
      }

      .cls-2 {
        fill: #0052b4;
      }

      .cls-3 {
        fill: #eee;
      }
    </style>
  </defs>
  <path class="cls-3" d="M0,25.86v3H7.48L.2,36.14c.35,1.59,1.14,3.01,2.25,4.12l11.41-11.41v4.22l-8.9,8.9c.51,.23,1.06,.41,1.62,.54l7.28-7.28v7.48h3V25.86H0Z"/>
  <path class="cls-3" d="M16.86,0h-3V7.49L6.58,.2c-1.59,.35-3.01,1.14-4.12,2.25L13.86,13.86h-4.22L.74,4.96c-.23,.51-.41,1.06-.54,1.62l7.28,7.28H0v3H16.86V0Z"/>
  <path class="cls-3" d="M28.86,9.64L37.76,.74c-.51-.23-1.06-.41-1.62-.54l-7.28,7.28V0h-3V16.86h16.86v-3h-7.48l7.28-7.28c-.35-1.59-1.14-3.01-2.25-4.12l-11.41,11.41v-4.22Z"/>
  <path class="cls-3" d="M25.86,42.72h3v-7.48l7.28,7.28c1.59-.35,3.01-1.14,4.12-2.25l-11.41-11.41h4.22l8.9,8.9c.23-.51,.41-1.06,.54-1.62l-7.28-7.28h7.48v-3H25.86v16.86Z"/>
  <path class="cls-2" d="M42.72,9.41v-1.03c0-.06,0-.12,0-.17l-.35,.59,.36,.61Z"/>
  <path class="cls-2" d="M42.71,34.52c0-.06,0-.12,0-.18v-1.02l-.36,.61,.35,.59Z"/>
  <path class="cls-2" d="M8.2,42.71c.06,0,.12,0,.18,0h1.02l-.61-.36-.59,.35Z"/>
  <path class="cls-2" d="M33.32,42.72h1.02c.06,0,.12,0,.18,0l-.59-.35-.61,.36Z"/>
  <path class="cls-2" d="M0,33.32v1.02c0,.06,0,.12,0,.18l.35-.59-.36-.61Z"/>
  <path class="cls-2" d="M34.52,0c-.06,0-.12,0-.18,0h-1.03l.61,.36,.59-.35Z"/>
  <path class="cls-2" d="M0,8.21c0,.06,0,.12,0,.17v1.03l.36-.61L0,8.21Z"/>
  <path class="cls-2" d="M9.41,0h-1.03c-.06,0-.12,0-.18,0l.59,.35,.61-.36Z"/>
  <path class="cls-2" d="M42.72,13.86v-4.46l-.36-.61,.35-.59c-.01-.56-.08-1.1-.19-1.63l-7.28,7.28h7.48Z"/>
  <path class="cls-2" d="M6.58,42.52c.53,.12,1.07,.18,1.63,.19l.59-.35,.61,.36h4.46v-7.48l-7.28,7.28Z"/>
  <path class="cls-2" d="M28.86,42.72h4.46l.61-.36,.59,.35c.56-.01,1.1-.08,1.63-.19l-7.28-7.28v7.48Z"/>
  <path class="cls-2" d="M.2,6.58c-.12,.53-.18,1.07-.19,1.63l.35,.59-.36,.61v4.46H7.48L.2,6.58Z"/>
  <path class="cls-2" d="M0,28.86v4.46l.36,.61-.35,.59c.01,.56,.08,1.1,.19,1.63l7.28-7.28H0Z"/>
  <path class="cls-2" d="M42.52,36.14c.12-.53,.18-1.07,.19-1.63l-.35-.59,.36-.61v-4.46h-7.48l7.28,7.28Z"/>
  <path class="cls-2" d="M36.14,.2c-.53-.12-1.07-.18-1.63-.19l-.59,.35-.61-.36h-4.45V7.49L36.14,.2Z"/>
  <path class="cls-2" d="M13.86,0h-4.45l-.61,.36L8.2,0c-.56,.01-1.1,.08-1.63,.19l7.28,7.28V0Z"/>
  <polygon class="cls-1" points="20.82 42.72 21.9 42.72 21.36 42.36 20.82 42.72"/>
  <polygon class="cls-1" points="0 20.82 0 21.9 .36 21.36 0 20.82"/>
  <polygon class="cls-1" points="21.9 0 20.82 0 21.36 .36 21.9 0"/>
  <polygon class="cls-1" points="42.72 21.9 42.72 20.82 42.36 21.36 42.72 21.9"/>
  <path class="cls-1" d="M28.86,28.86l11.41,11.41c.72-.72,1.3-1.56,1.72-2.5l-8.9-8.9h-4.22Z"/>
  <path class="cls-1" d="M28.86,9.64v4.22L40.27,2.45c-.72-.72-1.56-1.3-2.5-1.72l-8.9,8.9Z"/>
  <path class="cls-1" d="M13.86,28.86L2.45,40.27c.72,.72,1.56,1.3,2.5,1.72l8.9-8.9v-4.22Z"/>
  <path class="cls-1" d="M13.86,13.86L2.45,2.45c-.72,.72-1.3,1.56-1.72,2.5L9.64,13.86h4.22Z"/>
  <polygon class="cls-1" points="25.86 0 21.9 0 21.36 .36 20.82 0 16.86 0 16.86 16.86 0 16.86 0 20.82 .36 21.36 0 21.9 0 25.86 16.86 25.86 16.86 42.72 20.82 42.72 21.36 42.36 21.9 42.72 25.86 42.72 25.86 25.86 42.72 25.86 42.72 21.9 42.36 21.36 42.72 20.82 42.72 16.86 25.86 16.86 25.86 0"/>
</svg>