<?xml version="1.0" encoding="UTF-8"?>
<svg id="Calque_2" data-name="Calque 2" xmlns="http://www.w3.org/2000/svg" viewBox="0 0 42.72 42.72">
  <defs>
    <style>
      .cls-1 {
        fill: #49021f;
      }

      .cls-2 {
        fill: #f36;
      }
    </style>
  </defs>
  <rect class="cls-1" width="42.72" height="42.72" rx="8.38" ry="8.38"/>
  <g id="vlpa">
    <g id="vlpb">
      <path class="cls-2" d="M14.27,11.4v21.41c0,.23-.1,.33-.29,.33h-4.07c-.19,0-.27-.1-.27-.33V11.4c0-.19,.1-.27,.29-.27h4.05c.12-.02,.25,.06,.27,.21,.02,.02,.02,.04,.02,.06Z"/>
      <path class="cls-2" d="M26.29,33.38c-1.54,.02-3.08-.29-4.47-.94-1.31-.6-2.39-1.6-3.14-2.83-.77-1.27-1.14-2.85-1.14-4.74-.02-1.54,.37-3.06,1.14-4.39,.79-1.35,1.93-2.47,3.3-3.22,1.45-.81,3.2-1.21,5.26-1.21,.1,0,.25,0,.44,.02s.39,.02,.64,.04v-6.57c0-.15,.06-.23,.21-.23h4.22c.1-.02,.19,.06,.21,.15V29.31c0,.37,.02,.79,.04,1.25,.04,.44,.06,.85,.08,1.21,0,.15-.06,.27-.21,.33-1.08,.46-2.22,.79-3.39,1-1.04,.19-2.12,.29-3.2,.29h0Zm2.04-4.16v-9.14c-.19-.04-.37-.08-.56-.1-.23-.02-.46-.04-.69-.04-.81,0-1.62,.17-2.35,.54-.71,.35-1.31,.87-1.77,1.54s-.69,1.56-.69,2.64c-.02,.73,.1,1.45,.35,2.14,.21,.56,.52,1.06,.94,1.48,.39,.37,.87,.67,1.41,.83,.56,.19,1.14,.27,1.72,.27,.31,0,.6-.02,.87-.04,.27,.02,.52-.02,.75-.1h0Z"/>
    </g>
  </g>
</svg>