<?xml version="1.0" encoding="UTF-8"?>
<svg id="Calque_2" data-name="Calque 2" xmlns="http://www.w3.org/2000/svg" xmlns:xlink="http://www.w3.org/1999/xlink" viewBox="0 0 42.72 42.72">
  <defs>
    <style>
      .cls-1 {
        fill: #fff;
      }

      .cls-2 {
        fill: url(#Dégradé_sans_nom_2);
      }

      .cls-3 {
        fill: url(#Dégradé_sans_nom_5);
      }

      .cls-4 {
        opacity: .12;
      }

      .cls-5 {
        fill: url(#Dégradé_sans_nom_5-2);
      }

      .cls-6 {
        fill: none;
      }

      .cls-7 {
        fill: url(#Dégradé_sans_nom_3);
      }

      .cls-8 {
        opacity: .2;
      }

      .cls-9 {
        fill: url(#Dégradé_sans_nom_6);
      }
    </style>
    <linearGradient id="Dégradé_sans_nom_6" data-name="Dégradé sans nom 6" x1="308.72" y1="-289.06" x2="308.72" y2="-313.12" gradientTransform="translate(-282 -281.28) scale(1 -1)" gradientUnits="userSpaceOnUse">
      <stop offset="0" stop-color="#ffb900"/>
      <stop offset=".17" stop-color="#ef8400"/>
      <stop offset=".31" stop-color="#e25c01"/>
      <stop offset=".43" stop-color="#db4401"/>
      <stop offset=".5" stop-color="#d83b01"/>
    </linearGradient>
    <linearGradient id="Dégradé_sans_nom_2" data-name="Dégradé sans nom 2" x1="304.39" y1="-289.91" x2="291.65" y2="-308.11" gradientTransform="translate(-282 -281.28) scale(1 -1)" gradientUnits="userSpaceOnUse">
      <stop offset="0" stop-color="#800600"/>
      <stop offset=".6" stop-color="#c72127"/>
      <stop offset=".73" stop-color="#c13959"/>
      <stop offset=".85" stop-color="#bc4b81"/>
      <stop offset=".94" stop-color="#b95799"/>
      <stop offset="1" stop-color="#b85ba2"/>
    </linearGradient>
    <linearGradient id="Dégradé_sans_nom_3" data-name="Dégradé sans nom 3" x1="297.88" y1="-312.24" x2="314.51" y2="-312.24" gradientTransform="translate(-282 -281.28) scale(1 -1)" gradientUnits="userSpaceOnUse">
      <stop offset="0" stop-color="#f32b44"/>
      <stop offset=".6" stop-color="#a4070a"/>
    </linearGradient>
    <linearGradient id="Dégradé_sans_nom_5" data-name="Dégradé sans nom 5" x1="304.65" y1="-289.54" x2="301.95" y2="-293.4" gradientTransform="translate(-282 -281.28) scale(1 -1)" gradientUnits="userSpaceOnUse">
      <stop offset="0" stop-color="#000" stop-opacity=".4"/>
      <stop offset="1" stop-color="#000" stop-opacity="0"/>
    </linearGradient>
    <linearGradient id="Dégradé_sans_nom_5-2" data-name="Dégradé sans nom 5" x1="309.18" y1="-312.61" x2="301.73" y2="-311.96" xlink:href="#Dégradé_sans_nom_5"/>
  </defs>
  <rect class="cls-1" width="42.72" height="42.72" rx="8.38" ry="8.38"/>
  <g id="Icons_-_Color" data-name="Icons - Color">
    <g id="Desktop_-_Full_Bleed" data-name="Desktop - Full Bleed">
      <g class="cls-8">
        <path class="cls-1" d="M16.46,28.27c-.72,0-1.3,.6-1.29,1.32,0,.46,.25,.88,.65,1.12l4.62,2.62c.38,.22,.81,.33,1.25,.33,.24,0,.47-.03,.69-.1l6.94-1.98c1.06-.31,1.8-1.28,1.8-2.38v-.92h-14.65Z"/>
      </g>
      <g class="cls-4">
        <path class="cls-1" d="M16.46,28.27c-.72,0-1.3,.6-1.29,1.32,0,.46,.25,.88,.65,1.12l4.62,2.62c.38,.22,.81,.33,1.25,.33,.24,0,.47-.03,.69-.1l6.94-1.98c1.06-.31,1.8-1.28,1.8-2.38v-.92h-14.65Z"/>
      </g>
      <path class="cls-9" d="M22.34,9.17l1.86,4.27v14.83l-1.84,5.28,6.94-1.98c1.06-.31,1.8-1.28,1.8-2.38V13.54c0-1.11-.74-2.09-1.8-2.39l-6.97-1.97Z"/>
      <path class="cls-2" d="M13.54,28.11l2.03-1.1c.57-.31,.92-.91,.92-1.56v-7.98c0-.74,.47-1.41,1.17-1.67l6.55-2.37v-1.8c0-1.15-.76-2.15-1.86-2.47-.23-.07-.47-.1-.7-.1h0c-.45,0-.89,.12-1.28,.34l-7.5,4.28c-.77,.44-1.25,1.26-1.25,2.15v11.11c0,.72,.58,1.31,1.3,1.31,.22,0,.43-.05,.62-.16Z"/>
      <path class="cls-7" d="M24.2,28.27h-7.75c-.72,0-1.3,.6-1.29,1.32,0,.46,.25,.88,.65,1.12l4.62,2.62c.38,.22,.81,.33,1.25,.33h0c.24,0,.47-.03,.69-.1,1.09-.31,1.84-1.31,1.84-2.44v-2.84Z"/>
      <path class="cls-3" d="M13.54,28.11l2.03-1.1c.57-.31,.92-.91,.92-1.56v-7.98c0-.74,.47-1.41,1.17-1.67l6.55-2.37v-1.8c0-1.15-.76-2.15-1.86-2.47-.23-.07-.47-.1-.7-.1h0c-.45,0-.89,.12-1.28,.34l-7.5,4.28c-.77,.44-1.25,1.26-1.25,2.15v11.11c0,.72,.58,1.31,1.3,1.31,.22,0,.43-.05,.62-.16Z"/>
      <path class="cls-5" d="M24.2,28.27h-7.75c-.72,0-1.3,.6-1.29,1.32,0,.46,.25,.88,.65,1.12l4.62,2.62c.38,.22,.81,.33,1.25,.33h0c.24,0,.47-.03,.69-.1,1.09-.31,1.84-1.31,1.84-2.44v-2.84Z"/>
      <rect class="cls-6" x="8.36" y="8.36" width="26" height="26"/>
    </g>
  </g>
</svg>