<?xml version="1.0" encoding="UTF-8"?>
<svg id="Calque_2" data-name="Calque 2" xmlns="http://www.w3.org/2000/svg" xmlns:xlink="http://www.w3.org/1999/xlink" viewBox="0 0 42.72 42.72">
  <defs>
    <style>
      .cls-1 {
        fill: #fff;
      }

      .cls-2 {
        fill: url(#Dégradé_sans_nom_2);
      }

      .cls-3 {
        fill: url(#Dégradé_sans_nom_8);
      }
    </style>
    <linearGradient id="Dégradé_sans_nom_8" data-name="Dégradé sans nom 8" x1="541.66" y1="-568.2" x2="569.33" y2="-592.01" gradientTransform="translate(-298.15 -314.81) scale(.56 -.57)" gradientUnits="userSpaceOnUse">
      <stop offset="0" stop-color="#5a9fd4"/>
      <stop offset="1" stop-color="#306998"/>
    </linearGradient>
    <linearGradient id="Dégradé_sans_nom_2" data-name="Dégradé sans nom 2" x1="580.03" y1="-606.42" x2="570.15" y2="-592.44" gradientTransform="translate(-298.15 -314.81) scale(.56 -.57)" gradientUnits="userSpaceOnUse">
      <stop offset="0" stop-color="#ffd43b"/>
      <stop offset="1" stop-color="#ffe873"/>
    </linearGradient>
  </defs>
  <rect class="cls-1" width="42.72" height="42.72" rx="8.38" ry="8.38"/>
  <path id="path1948" class="cls-3" d="M21.19,7.1c-1.16,0-2.27,.1-3.25,.28-2.88,.51-3.4,1.57-3.4,3.54v2.59h6.8v.86H11.98c-1.98,0-3.71,1.19-4.25,3.45-.62,2.59-.65,4.21,0,6.92,.48,2.01,1.64,3.45,3.62,3.45h2.34v-3.11c0-2.25,1.94-4.23,4.25-4.23h6.8c1.89,0,3.4-1.56,3.4-3.46v-6.48c0-1.84-1.56-3.23-3.4-3.54-1.17-.19-2.38-.28-3.55-.28Zm-3.68,2.09c.7,0,1.28,.58,1.28,1.3,0,.71-.57,1.29-1.28,1.29-.71,0-1.28-.58-1.28-1.29s.57-1.3,1.28-1.3Z"/>
  <path id="path1950" class="cls-2" d="M28.99,14.37v3.02c0,2.34-1.99,4.31-4.25,4.31h-6.8c-1.86,0-3.4,1.59-3.4,3.46v6.48c0,1.84,1.6,2.93,3.4,3.46,2.15,.63,4.22,.75,6.8,0,1.71-.5,3.4-1.49,3.4-3.46v-2.59h-6.8v-.86h10.2c1.98,0,2.71-1.38,3.4-3.45,.71-2.13,.68-4.18,0-6.92-.49-1.97-1.42-3.45-3.4-3.45h-2.55Zm-3.82,16.41c.71,0,1.28,.58,1.28,1.29s-.57,1.3-1.28,1.3-1.28-.58-1.28-1.3,.57-1.29,1.28-1.29Z"/>
</svg>