<svg xmlns="http://www.w3.org/2000/svg" viewBox="0 0 385 215.67"><defs><style>.cls-1{fill:#1e90ff;}.cls-2{fill:#fff;}</style></defs><g id="Calque_2" data-name="Calque 2"><circle class="cls-1" cx="65.06" cy="150.61" r="65.06"/><circle class="cls-1" cx="259.39" cy="150.61" r="65.06"/><rect class="cls-1" x="143.6" y="200.94" width="12.48" height="88.64" rx="3.5" transform="translate(145.64 388.62) rotate(-160.99)"/><circle class="cls-2" cx="65.22" cy="149.92" r="27.19"/><circle class="cls-2" cx="258.56" cy="149.22" r="27.19"/><rect class="cls-1" x="90.9" y="10.69" width="10.69" height="60.6" rx="1.5"/><rect class="cls-1" x="234.68" y="215.31" width="81.54" height="10.69" rx="3" transform="translate(-142.97 102.46) rotate(-41.81)"/><rect class="cls-1" x="230.75" y="53.95" width="81.54" height="10.69" rx="3"/><rect class="cls-1" x="231.71" y="33.87" width="8.91" height="24.95" rx="2.5"/><rect class="cls-1" x="221.02" y="24.95" width="30.3" height="12.48" rx="3.5"/><rect class="cls-1" x="96.25" y="19.61" width="23.17" height="5.35" rx="1.5"/><rect class="cls-1" x="90.9" y="8.91" width="23.17" height="5.35" rx="1.5"/><rect class="cls-1" x="262.01" width="122.99" height="69.51" rx="12"/><rect class="cls-1" x="153.99" y="228.82" width="135.74" height="12.48" rx="3.5" transform="translate(35.74 -202.35) rotate(21.53)"/></g></svg>