<svg id="Calque_1" data-name="Calque 1" xmlns="http://www.w3.org/2000/svg" viewBox="0 0 100.24 21.83"><defs><style>.cls-1{fill:#f9f;}</style></defs><path class="cls-1" d="M13.58,37.67h6.64v2.94H9.77V24.78h3.81Z" transform="translate(-9.77 -19)"/><path class="cls-1" d="M34,24.78V35.14a6,6,0,0,1-.75,3,4.82,4.82,0,0,1-2.15,2,7.55,7.55,0,0,1-3.31.68,6.56,6.56,0,0,1-4.56-1.5,5.34,5.34,0,0,1-1.69-4.11V24.78h3.83V35.29c0,1.74.85,2.6,2.42,2.6a2.35,2.35,0,0,0,1.79-.65,3,3,0,0,0,.61-2.12V24.78Z" transform="translate(-9.77 -19)"/><path class="cls-1" d="M36.36,40.61V24.78h5.1a7.51,7.51,0,0,1,3.77.95,6.72,6.72,0,0,1,2.62,2.69,8.19,8.19,0,0,1,.95,3.88V33a8.2,8.2,0,0,1-.92,3.9,6.58,6.58,0,0,1-2.59,2.69,7.33,7.33,0,0,1-3.72,1Zm3.82-12.88v9.94h1.33A3,3,0,0,0,44,36.5,5.74,5.74,0,0,0,44.91,33v-.68A5.75,5.75,0,0,0,44,28.89a3,3,0,0,0-2.57-1.16Z" transform="translate(-9.77 -19)"/><path class="cls-1" d="M54.82,40.61H51V24.78h3.8Z" transform="translate(-9.77 -19)"/><path class="cls-1" d="M58.8,24.83,57.19,24a6.3,6.3,0,0,0,.92-3.07V19h2.68v1.77a4.79,4.79,0,0,1-.59,2.16A6.43,6.43,0,0,1,58.8,24.83Z" transform="translate(-9.77 -19)"/><path class="cls-1" d="M67.88,24.78l3.54,11,3.52-11h5V40.61H76.13v-3.7l.37-7.56L72.68,40.61H70.16L66.32,29.34l.37,7.57v3.7H62.87V24.78Z" transform="translate(-9.77 -19)"/><path class="cls-1" d="M95.79,33a9.39,9.39,0,0,1-.86,4.1,6.39,6.39,0,0,1-2.44,2.74,7.28,7.28,0,0,1-7.19,0,6.29,6.29,0,0,1-2.44-2.66,9,9,0,0,1-.92-4v-.89a9.33,9.33,0,0,1,.85-4.1,6.37,6.37,0,0,1,2.45-2.75,6.87,6.87,0,0,1,3.62-1,6.76,6.76,0,0,1,3.59.95,6.48,6.48,0,0,1,2.45,2.72,9.21,9.21,0,0,1,.89,4.05Zm-3.88-.66a6.69,6.69,0,0,0-.79-3.58,2.53,2.53,0,0,0-2.26-1.23q-2.86,0-3,4.31V33a6.92,6.92,0,0,0,.77,3.58,2.52,2.52,0,0,0,2.29,1.25,2.49,2.49,0,0,0,2.23-1.23,6.7,6.7,0,0,0,.8-3.53Z" transform="translate(-9.77 -19)"/><path class="cls-1" d="M97.75,40.61V24.78h5.69a8.09,8.09,0,0,1,4.64,1.12,3.72,3.72,0,0,1,1.6,3.25,3.75,3.75,0,0,1-.57,2.1,3.27,3.27,0,0,1-1.66,1.28,3.38,3.38,0,0,1,1.9,1.22,3.54,3.54,0,0,1,.66,2.17,4.21,4.21,0,0,1-1.47,3.5,7,7,0,0,1-4.36,1.19Zm3.82-9.23h2a2.84,2.84,0,0,0,1.78-.46,1.65,1.65,0,0,0,.53-1.32,1.7,1.7,0,0,0-.57-1.44,3.07,3.07,0,0,0-1.86-.44h-1.87Zm0,2.5v3.79h2.5a2.31,2.31,0,0,0,1.58-.47,1.65,1.65,0,0,0,.56-1.33,1.76,1.76,0,0,0-2-2Z" transform="translate(-9.77 -19)"/><ellipse class="cls-1" cx="79.02" cy="13.68" rx="5.41" ry="6.52"/></svg>