<?xml version="1.0" encoding="utf-8"?>
<!-- Generator: Adobe Illustrator 27.0.0, SVG Export Plug-In . SVG Version: 6.00 Build 0)  -->
<svg version="1.1" id="Layer_1" xmlns="http://www.w3.org/2000/svg" xmlns:xlink="http://www.w3.org/1999/xlink" x="0px" y="0px"
	 viewBox="0 0 500 500" style="enable-background:new 0 0 500 500;" xml:space="preserve">
<style type="text/css">
	.st0{fill:#22B37E;}
	.st1{fill:#F1F1F1;}
</style>
<rect class="st0" width="500" height="500"/>
<path class="st1" d="M148.37,483H69.63C42.88,483,21,461.11,21,434.37V75.63C21,48.88,42.88,27,69.63,27h78.73
	C175.12,27,197,48.88,197,75.63v358.73C197,461.11,175.12,483,148.37,483z"/>
<path class="st1" d="M435,106H251c-13.75,0-25-11.25-25-25v0c0-13.75,11.25-25,25-25h184c13.75,0,25,11.25,25,25v0
	C460,94.75,448.75,106,435,106z"/>
<path class="st1" d="M451,136H240c-4.97,0-9-4.03-9-9v0c0-4.97,4.03-9,9-9h211c4.97,0,9,4.03,9,9v0C460,131.97,455.97,136,451,136z"
	/>
<path class="st1" d="M449,166H238c-4.97,0-9-4.03-9-9v0c0-4.97,4.03-9,9-9h211c4.97,0,9,4.03,9,9v0C458,161.97,453.97,166,449,166z"
	/>
<path class="st1" d="M448,196H237c-4.97,0-9-4.03-9-9v0c0-4.97,4.03-9,9-9h211c4.97,0,9,4.03,9,9v0C457,191.97,452.97,196,448,196z"
	/>
<path class="st1" d="M448,229H237c-4.97,0-9-4.03-9-9v0c0-4.97,4.03-9,9-9h211c4.97,0,9,4.03,9,9v0C457,224.97,452.97,229,448,229z"
	/>
<path class="st1" d="M432,307H248c-13.75,0-25-11.25-25-25v0c0-13.75,11.25-25,25-25h184c13.75,0,25,11.25,25,25v0
	C457,295.75,445.75,307,432,307z"/>
<path class="st1" d="M448,337H237c-4.97,0-9-4.03-9-9l0,0c0-4.97,4.03-9,9-9h211c4.97,0,9,4.03,9,9l0,0
	C457,332.97,452.97,337,448,337z"/>
<path class="st1" d="M446,367H235c-4.97,0-9-4.03-9-9l0,0c0-4.97,4.03-9,9-9h211c4.97,0,9,4.03,9,9l0,0
	C455,362.97,450.97,367,446,367z"/>
<path class="st1" d="M445,397H234c-4.97,0-9-4.03-9-9l0,0c0-4.97,4.03-9,9-9h211c4.97,0,9,4.03,9,9l0,0
	C454,392.97,449.97,397,445,397z"/>
<path class="st1" d="M445,430H234c-4.97,0-9-4.03-9-9l0,0c0-4.97,4.03-9,9-9h211c4.97,0,9,4.03,9,9l0,0
	C454,425.97,449.97,430,445,430z"/>
</svg>
