<?xml version="1.0" encoding="UTF-8"?>
<svg xmlns="http://www.w3.org/2000/svg" xmlns:xlink="http://www.w3.org/1999/xlink" viewBox="0 0 500 500">
  <defs>
    <style>
      .cls-1, .cls-2 {
        fill: #fff;
      }

      .cls-3 {
        letter-spacing: 0em;
      }

      .cls-4 {
        fill: url(#radial-gradient);
      }

      .cls-5 {
        font-family: Roboto-Regular, Roboto;
        font-size: 10px;
      }

      .cls-5, .cls-6 {
        fill: #666;
      }

      .cls-7 {
        fill: url(#radial-gradient-2);
      }

      .cls-2 {
        stroke: #000;
        stroke-miterlimit: 10;
      }

      .cls-8 {
        fill: #ccc;
      }

      .cls-9 {
        letter-spacing: 0em;
      }
    </style>
    <radialGradient id="radial-gradient" cx="125.05" cy="-301.28" fx="125.05" fy="-301.28" r="71.19" gradientTransform="translate(-338.91 580.01) rotate(-90) scale(1.98 -1.84)" gradientUnits="userSpaceOnUse">
      <stop offset="0" stop-color="#fd5"/>
      <stop offset=".1" stop-color="#fd5"/>
      <stop offset=".5" stop-color="#ff543e"/>
      <stop offset="1" stop-color="#c837ab"/>
    </radialGradient>
    <radialGradient id="radial-gradient-2" cx="246.07" cy="-54.15" fx="246.07" fy="-54.15" r="71.19" gradientTransform="translate(306.1 -63.51) rotate(78.68) scale(.89 -3.65)" gradientUnits="userSpaceOnUse">
      <stop offset="0" stop-color="#3771c8"/>
      <stop offset=".13" stop-color="#3771c8"/>
      <stop offset="1" stop-color="#60f" stop-opacity="0"/>
    </radialGradient>
  </defs>
  <g id="Layer_5" data-name="Layer 5">
    <rect width="500" height="500"/>
  </g>
  <g id="Layer_4" data-name="Layer 4">
    <rect class="cls-8" x="291.55" y="86.48" width="4.47" height="10.29"/>
    <rect class="cls-8" x="297.81" y="86.48" width="4.47" height="10.29"/>
  </g>
  <g id="Layer_1" data-name="Layer 1">
    <rect class="cls-2" x="137.2" y="54.82" width="225.6" height="390.4" rx="49.6" ry="49.6"/>
  </g>
  <g id="Layer_3" data-name="Layer 3">
    <path class="cls-4" d="M250.02,178.83c-29.73,0-38.42,.03-40.11,.17-6.1,.51-9.9,1.47-14.03,3.53-3.19,1.58-5.7,3.42-8.18,5.99-4.52,4.69-7.26,10.46-8.25,17.32-.48,3.33-.62,4.01-.65,21.02-.01,5.67,0,13.13,0,23.14,0,29.7,.03,38.39,.18,40.08,.49,5.94,1.42,9.67,3.4,13.76,3.77,7.82,10.96,13.69,19.44,15.88,2.94,.76,6.18,1.17,10.34,1.37,1.76,.08,19.74,.13,37.72,.13s35.97-.02,37.69-.11c4.82-.23,7.62-.6,10.71-1.4,8.53-2.2,15.6-7.98,19.44-15.91,1.93-3.99,2.91-7.86,3.36-13.49,.1-1.23,.14-20.79,.14-40.32s-.04-39.06-.14-40.28c-.45-5.72-1.43-9.56-3.42-13.63-1.64-3.33-3.46-5.81-6.1-8.35-4.71-4.5-10.47-7.24-17.34-8.23-3.33-.48-3.99-.62-21.01-.65h-23.18Z"/>
    <path class="cls-7" d="M250.02,178.83c-29.73,0-38.42,.03-40.11,.17-6.1,.51-9.9,1.47-14.03,3.53-3.19,1.58-5.7,3.42-8.18,5.99-4.52,4.69-7.26,10.46-8.25,17.32-.48,3.33-.62,4.01-.65,21.02-.01,5.67,0,13.13,0,23.14,0,29.7,.03,38.39,.18,40.08,.49,5.94,1.42,9.67,3.4,13.76,3.77,7.82,10.96,13.69,19.44,15.88,2.94,.76,6.18,1.17,10.34,1.37,1.76,.08,19.74,.13,37.72,.13s35.97-.02,37.69-.11c4.82-.23,7.62-.6,10.71-1.4,8.53-2.2,15.6-7.98,19.44-15.91,1.93-3.99,2.91-7.86,3.36-13.49,.1-1.23,.14-20.79,.14-40.32s-.04-39.06-.14-40.28c-.45-5.72-1.43-9.56-3.42-13.63-1.64-3.33-3.46-5.81-6.1-8.35-4.71-4.5-10.47-7.24-17.34-8.23-3.33-.48-3.99-.62-21.01-.65h-23.18Z"/>
    <path class="cls-1" d="M250,197.45c-14.28,0-16.07,.06-21.68,.32-5.6,.26-9.42,1.14-12.76,2.44-3.46,1.34-6.39,3.14-9.31,6.06-2.92,2.92-4.72,5.86-6.07,9.31-1.3,3.34-2.19,7.17-2.44,12.76-.25,5.61-.32,7.4-.32,21.68s.06,16.06,.32,21.67c.26,5.6,1.14,9.42,2.44,12.76,1.34,3.46,3.14,6.39,6.06,9.31,2.92,2.92,5.85,4.73,9.31,6.07,3.34,1.3,7.17,2.19,12.76,2.44,5.61,.26,7.4,.32,21.68,.32s16.07-.06,21.67-.32c5.6-.26,9.42-1.14,12.77-2.44,3.46-1.34,6.39-3.14,9.31-6.07,2.92-2.92,4.72-5.86,6.07-9.31,1.29-3.34,2.18-7.17,2.44-12.76,.25-5.61,.32-7.4,.32-21.67s-.07-16.07-.32-21.68c-.26-5.6-1.15-9.42-2.44-12.76-1.35-3.46-3.14-6.39-6.07-9.31-2.92-2.92-5.85-4.72-9.31-6.06-3.35-1.3-7.17-2.19-12.77-2.44-5.61-.26-7.39-.32-21.68-.32h.02Zm-4.72,9.47c1.4,0,2.96,0,4.72,0,14.04,0,15.7,.05,21.24,.3,5.13,.23,7.91,1.09,9.76,1.81,2.45,.95,4.2,2.09,6.04,3.93,1.84,1.84,2.98,3.59,3.93,6.05,.72,1.85,1.58,4.63,1.81,9.76,.25,5.54,.31,7.21,.31,21.24s-.05,15.7-.31,21.24c-.23,5.13-1.09,7.91-1.81,9.76-.95,2.45-2.09,4.2-3.93,6.04-1.84,1.84-3.59,2.98-6.04,3.93-1.85,.72-4.64,1.58-9.76,1.81-5.54,.25-7.21,.31-21.24,.31s-15.7-.05-21.24-.31c-5.13-.24-7.91-1.09-9.76-1.81-2.45-.95-4.21-2.09-6.05-3.93-1.84-1.84-2.98-3.59-3.93-6.04-.72-1.85-1.58-4.63-1.81-9.76-.25-5.54-.3-7.21-.3-21.25s.05-15.7,.3-21.24c.23-5.13,1.09-7.91,1.81-9.76,.95-2.45,2.09-4.21,3.93-6.05,1.84-1.84,3.59-2.98,6.05-3.93,1.85-.72,4.64-1.58,9.76-1.81,4.85-.22,6.73-.28,16.53-.3h0Zm32.78,8.74c-3.48,0-6.31,2.82-6.31,6.31s2.83,6.31,6.31,6.31,6.31-2.83,6.31-6.31-2.83-6.31-6.31-6.31h0Zm-28.06,7.37c-14.91,0-27,12.09-27,27s12.09,26.99,27,26.99c14.91,0,26.99-12.08,26.99-26.99s-12.09-27-27-27h0Zm0,9.47c9.68,0,17.52,7.85,17.52,17.52s-7.85,17.52-17.52,17.52-17.52-7.85-17.52-17.52,7.85-17.52,17.52-17.52Z"/>
    <circle cx="250" cy="416.95" r="14.46"/>
    <circle class="cls-6" cx="170.99" cy="91.8" r="10.73"/>
    <rect class="cls-6" x="160.26" y="75.26" width="53.12" height="3.73" rx="1.87" ry="1.87"/>
    <rect class="cls-6" x="221.66" y="75.26" width="53.12" height="3.73" rx="1.87" ry="1.87"/>
    <rect class="cls-6" x="283.7" y="75.26" width="53.12" height="3.73" rx="1.87" ry="1.87"/>
    <rect class="cls-8" x="160.26" y="75.26" width="53.12" height="3.73" rx="1.87" ry="1.87"/>
    <rect class="cls-8" x="221.66" y="75.26" width="39.71" height="3.73" rx="1.87" ry="1.87"/>
    <text class="cls-5" transform="translate(186.82 95.94)"><tspan x="0" y="0">S</tspan><tspan class="cls-9" x="5.93" y="0">t</tspan><tspan x="9.1" y="0">o</tspan><tspan class="cls-3" x="14.8" y="0">r</tspan><tspan x="18.28" y="0">y</tspan></text>
    <polygon class="cls-8" points="303.61 88.45 303.61 94.91 306.91 96.32 306.91 86.03 303.61 88.45"/>
    <polygon class="cls-8" points="314.49 89.64 310.08 93.92 308.69 92.72 313.1 88.43 314.49 89.64"/>
    <polygon class="cls-8" points="309.91 88.52 314.58 92.57 313.27 93.84 308.6 89.79 309.91 88.52"/>
    <circle class="cls-8" cx="322.25" cy="91.8" r="2.25"/>
    <circle class="cls-8" cx="327.69" cy="91.8" r="2.25"/>
    <circle class="cls-8" cx="333.23" cy="91.8" r="2.25"/>
    <polygon class="cls-8" points="289.54 85.42 289.54 96.94 296.88 91.18 289.54 85.42"/>
  </g>
</svg>