<?xml version="1.0" encoding="UTF-8"?>
<svg id="Calque_1" data-name="Calque 1" xmlns="http://www.w3.org/2000/svg" viewBox="0 0 500 500">
  <defs>
    <style>
      .cls-1 {
        fill: #fff;
      }

      .cls-2 {
        fill: #634703;
      }

      .cls-3 {
        fill: #eceff1;
      }

      .cls-4 {
        fill: #455a64;
      }

      .cls-5 {
        fill: #212121;
      }

      .cls-6 {
        fill: #ffc107;
      }

      .cls-7 {
        fill: #263238;
      }
    </style>
  </defs>
  <rect class="cls-1" width="500" height="500" rx="122.3" ry="122.3"/>
  <g>
    <polygon class="cls-3" points="211.04 187.04 211.76 203.41 200.37 224.77 182.57 259.64 179.01 288.83 191.83 330.11 221.01 346.48 265.14 346.48 306.42 315.16 324.93 266.05 282.22 214.09 270.12 184.9 211.04 187.04"/>
    <path class="cls-7" d="M312.12,229.34c-11.39-16.37-20.64-26.34-25.62-46.98s1.42-14.95-2.85-32.74c-2.14-9.25-5.69-15.66-9.25-20.64-4.27-4.98-9.25-7.83-12.1-8.54-6.41-3.56-21.35-9.25-39.86,.71-19.22,9.97-17.08,31.32-13.52,74.74,0,2.85-.71,6.41-2.14,9.25-2.85,6.41-7.83,12.1-12.1,17.08-4.98,7.12-9.97,14.24-13.52,22.07-8.54,16.37-16.37,37.01-14.24,44.84,3.56-.71,48.4,67.62,48.4,69.04,2.85-.71,14.95-.71,25.62-.71,14.95-.71,23.49-1.42,35.59,1.42,0-2.14-.71-4.27-.71-6.41,0-4.27,.71-7.83,1.42-12.81,.71-3.56,1.42-7.12,2.14-11.39-7.12,6.41-19.93,13.52-32.03,15.66-10.68,2.14-28.47-1.42-37.01-12.1,.71,0,2.14,0,2.85-.71,2.14-.71,4.27-1.42,4.98-2.85,2.14-3.56,.71-7.12-.71-9.25s-12.1-9.97-17.08-14.24c-4.98-4.27-7.83-6.41-10.68-9.25,0,0-4.27-4.27-5.69-5.69-1.42-1.42-2.14-2.85-2.85-3.56-1.42-3.56-2.14-7.83-1.42-13.52,.71-7.83,3.56-14.24,7.12-21.35,1.42-2.85,4.98-8.54,4.98-8.54,0,0-12.1,29.9-5.69,39.15,0,0,.71-9.25,3.56-18.51,2.14-6.41,5.69-15.66,9.97-20.64s14.95-23.49,15.66-34.88c0-4.98,.71-9.97,.71-13.52-2.85-2.85,46.98-9.97,49.83-2.14,.71,2.85,10.68,28.47,16.37,42,2.85,6.41,6.41,12.1,8.54,19.22,2.14,7.83,3.56,18.51,3.56,29.18,0,2.14,0,5.69-.71,9.25,1.42,0,29.18-29.9-3.56-54.81,0,0,19.93,9.25,20.64,27.76,.71,14.95-5.69,27.05-7.12,29.18,.71,0,14.95,6.41,15.66,6.41,2.85,0,8.54-2.14,8.54-2.14,.71-2.14,2.85-7.83,2.85-9.97,4.98-16.37-7.12-42.71-18.51-59.08Z"/>
    <g>
      <ellipse class="cls-3" cx="221.72" cy="168.12" rx="9.25" ry="14.24"/>
      <ellipse class="cls-3" cx="253.75" cy="167.41" rx="12.1" ry="16.37"/>
    </g>
    <g>
      <ellipse class="cls-5" cx="221.95" cy="169.72" rx="4.98" ry="8.54" transform="translate(-19.53 29.17) rotate(-7.2)"/>
      <ellipse class="cls-5" cx="253.04" cy="170.26" rx="7.12" ry="9.25"/>
    </g>
    <g>
      <path class="cls-6" d="M347.71,326.85c-2.85-1.42-7.83-3.56-12.1-9.97-2.14-3.56-1.42-13.52-4.98-17.79-2.14-2.85-4.98-1.42-5.69-1.42-6.41,1.42-21.35,11.39-31.32,0-1.42-1.42-3.56-3.56-7.12-3.56s-4.98,1.42-6.41,4.27-1.42,4.98-1.42,12.1c0,5.69,0,12.1-.71,17.08-1.42,12.1-3.56,19.22-3.56,26.34,0,7.83,2.14,12.81,4.98,14.95,2.14,2.14,5.69,3.56,13.52,3.56s12.81-2.85,17.79-7.83c3.56-3.56,6.41-4.98,16.37-12.1,7.83-4.98,19.93-11.39,22.07-13.52,1.42-1.42,3.56-2.14,3.56-6.41,0-3.56-2.85-4.98-4.98-5.69Z"/>
      <path class="cls-6" d="M204.64,328.99c-7.12-11.39-7.83-13.52-12.81-20.64-4.27-7.12-13.52-20.64-19.22-20.64-4.27,0-6.41,2.14-9.25,4.98-2.85,2.85-5.69,9.25-10.68,12.81-4.27,3.56-16.37,2.85-19.22,7.12s2.85,10.68,2.85,21.35c0,4.27-3.56,7.12-4.27,9.97-.71,3.56-1.42,5.69,0,8.54,2.85,4.27,6.41,5.69,30.61,10.68,12.81,2.85,24.91,9.97,32.74,10.68s21.35,0,21.35-19.22c.71-11.39-5.69-14.24-12.1-25.62Z"/>
      <path class="cls-6" d="M218.16,200.15c-4.27-2.85-7.83-5.69-7.83-9.97s2.85-5.69,7.12-9.25c.71-.71,8.54-7.83,16.37-7.83s17.08,4.98,20.64,6.41c6.41,1.42,12.81,2.85,12.1,7.83-.71,7.12-1.42,8.54-8.54,12.1-4.98,1.42-14.24,9.25-20.64,9.25-2.85,0-7.12,0-9.97-.71-2.14-.71-5.69-4.27-9.25-7.83Z"/>
    </g>
    <g>
      <path class="cls-2" d="M216.74,194.46c1.42,1.42,3.56,2.85,5.69,3.56,1.42,.71,3.56,1.42,3.56-1.01h6.41c3.56,2.44,8.54,1.01,13.52-1.83,4.98-2.14,5.69-3.56,9.25-4.98,3.56-2.14,7.12-4.27,5.69-4.98s-2.85,0-7.83,2.85c-4.27,2.85-7.83,4.27-12.1,6.41-2.14,.71-4.98,2.14-7.12,9.66h-6.41c-2.14-7.53-3.56-8.24-5.69-8.95-1.42-.71-2.14-1.42-2.85-1.42-1.42-.71-4.27-3.56-5.69-4.27,0,0-1.42,0-.71,.71,2.14,2.14,2.85,2.85,4.27,4.27Z"/>
      <path class="cls-2" d="M238.09,178.8c.71,1.42,2.14,1.42,2.85,2.14,.71,.71,1.42,.71,1.42,.71,.71-.71,0-2.14-.71-2.14,0-1.42-3.56-1.42-3.56-.71Z"/>
      <path class="cls-2" d="M226.7,180.22c0,.71,1.42,1.42,1.42,.71,.71-.71,1.42-1.42,2.14-1.42,1.42-.71,.71-1.42-1.42-1.42-1.42,.71-1.42,1.42-2.14,2.14Z"/>
    </g>
    <path class="cls-4" d="M293.41,306.21v2.14c1.42,2.85,4.98,3.56,7.83,3.56,4.27,0,8.54-2.85,10.68-5.69,0-.71,.71-1.42,1.42-2.14,1.42-2.14,2.14-3.56,2.85-4.27,0,0-.71-.71-.71-1.42-.71-1.42-2.85-2.85-5.69-3.56-2.14-.71-5.69-1.42-7.12-1.42-6.41-.71-9.97,1.42-12.1,3.56,0,0,.71,0,.71,.71,1.42,1.42,2.14,2.85,2.14,4.98,.71,1.42,0,2.14,0,3.56Z"/>
  </g>
</svg>