<?xml version="1.0" encoding="UTF-8"?>
<svg xmlns="http://www.w3.org/2000/svg" viewBox="0 0 500 500">
  <defs>
    <style>
      .cls-1, .cls-2 {
        fill: #fff;
      }

      .cls-3 {
        letter-spacing: -.02em;
      }

      .cls-2 {
        font-family: Roboto-Black, Roboto;
        font-size: 36px;
        font-weight: 800;
      }

      .cls-4 {
        fill: #f9f;
      }
    </style>
  </defs>
  <g id="Layer_2" data-name="Layer 2">
    <rect class="cls-4" width="500" height="500"/>
  </g>
  <g id="Layer_1" data-name="Layer 1">
    <path class="cls-1" d="M97.58,275.49h21.79v9.65h-34.29v-51.94h12.5v42.29Z"/>
    <path class="cls-1" d="M164.57,233.2v33.99c.05,3.44-.79,6.83-2.46,9.84-1.61,2.87-4.08,5.16-7.05,6.56-3.41,1.55-7.12,2.32-10.86,2.23-5.43,.31-10.78-1.45-14.96-4.92-3.72-3.48-5.74-8.4-5.54-13.49v-34.22h12.57v34.48c0,5.71,2.79,8.53,7.94,8.53,2.17,.15,4.3-.62,5.87-2.13,1.53-1.98,2.24-4.47,2-6.96v-33.93h12.5Z"/>
    <path class="cls-1" d="M172.32,285.14v-51.94h16.73c4.33-.06,8.59,1.01,12.37,3.12,3.65,2.07,6.63,5.13,8.6,8.83,2.07,3.92,3.14,8.29,3.12,12.73v2.3c.07,4.45-.97,8.85-3.02,12.8-1.92,3.7-4.87,6.77-8.5,8.83-3.7,2.16-7.92,3.3-12.21,3.28l-17.09,.07Zm12.53-42.26v32.61h4.36c3.18,.12,6.23-1.31,8.17-3.84,2.21-3.41,3.25-7.43,2.99-11.48v-2.23c.22-3.97-.83-7.91-2.99-11.25-2-2.59-5.16-4.02-8.43-3.81h-4.1Z"/>
    <path class="cls-1" d="M232.89,285.14h-12.53v-51.94h12.47l.07,51.94Z"/>
    <path class="cls-1" d="M245.94,233.37l-5.28-2.72c1.86-3.04,2.9-6.51,3.02-10.07v-6.33h8.79v5.81c-.08,2.48-.74,4.91-1.94,7.09-1.13,2.34-2.69,4.46-4.59,6.23Z"/>
    <path class="cls-1" d="M275.74,233.2l11.61,36.09,11.55-36.09h16.41v51.94h-12.5v-12.14l1.21-24.8-12.53,36.94h-8.27l-12.6-36.98,1.21,24.84v12.14h-12.53v-51.94h16.44Z"/>
    <path class="cls-1" d="M367.31,260.17c.08,4.64-.88,9.24-2.82,13.45-1.73,3.71-4.52,6.84-8.01,8.99-7.31,4.15-16.28,4.15-23.59,0-3.46-2.06-6.25-5.1-8.01-8.73-2-4.08-3.04-8.58-3.02-13.12v-2.92c-.1-4.64,.85-9.24,2.79-13.45,1.73-3.73,4.53-6.87,8.04-9.02,3.58-2.18,7.69-3.31,11.88-3.28,4.14-.08,8.22,1,11.78,3.12,3.48,2.14,6.27,5.24,8.04,8.92,1.97,4.15,2.97,8.69,2.92,13.29v2.76Zm-12.73-2.17c.25-4.08-.65-8.15-2.59-11.75-1.55-2.6-4.39-4.14-7.42-4.04-6.26,0-9.54,4.71-9.84,14.14v3.81c-.23,4.07,.64,8.13,2.53,11.75,1.55,2.66,4.44,4.24,7.51,4.1,2.99,.1,5.8-1.45,7.32-4.04,1.92-3.55,2.83-7.55,2.62-11.58l-.13-2.4Z"/>
    <path class="cls-1" d="M373.74,285.14v-51.94h18.67c5.33-.33,10.63,.95,15.22,3.67,3.48,2.4,5.47,6.44,5.25,10.66,.07,2.43-.58,4.83-1.87,6.89-1.31,1.96-3.22,3.44-5.45,4.2,2.48,.58,4.68,1.99,6.23,4,1.48,2.07,2.24,4.57,2.17,7.12,.31,4.38-1.48,8.64-4.82,11.48-4.21,2.85-9.24,4.22-14.31,3.9h-21.1Zm12.53-30.28h6.56c2.06,.16,4.11-.37,5.84-1.51,1.2-1.11,1.84-2.7,1.74-4.33,.17-1.78-.52-3.54-1.87-4.72-1.83-1.12-3.97-1.62-6.1-1.44h-6.14l-.03,12.01Zm0,8.2v12.44h8.2c1.86,.14,3.7-.41,5.18-1.54,1.25-1.1,1.93-2.7,1.84-4.36,.47-3.15-1.71-6.09-4.86-6.56-.56-.08-1.14-.08-1.7,0l-8.66,.03Z"/>
    <ellipse class="cls-1" cx="344.34" cy="259.12" rx="17.75" ry="21.39"/>
    <text class="cls-2" transform="translate(158 366.03)"><tspan x="0" y="0">P</tspan><tspan class="cls-3" x="23.43" y="0">r</tspan><tspan x="36.44" y="0">ojet web</tspan></text>
  </g>
</svg>