<?xml version="1.0" encoding="UTF-8"?>
<svg id="Calque_2" data-name="Calque 2" xmlns="http://www.w3.org/2000/svg" viewBox="0 0 388.05 398.8">
  <defs>
    <style>
      .cls-1 {
        fill: #fff;
      }

      .cls-2 {
        fill: #333;
      }
    </style>
  </defs>
  <rect class="cls-2" width="388.05" height="398.8" rx="134.39" ry="134.39"/>
  <path class="cls-1" d="M217.23,214.6c-7.71,0-15.4,3.66-23.11,11-6.91-7.34-14.73-11-23.43-11s-15.61,3.08-21.54,9.24c-5.92,6.15-8.88,13.64-8.88,22.43v48.26s29.39,0,29.39,0v-42.21c0-5.82,1.62-8.72,4.88-8.72,1.78,0,3.03,.62,3.74,1.89s1.07,3.52,1.07,6.76v42.28s29.39,0,29.39,0v-42.21c0-5.82,1.65-8.72,4.95-8.72,1.78,0,3.01,.62,3.69,1.89,.69,1.26,1.02,3.52,1.02,6.76v42.28s29.39,0,29.39,0v-44.96c0-10.64-2.33-18.73-7-24.28-5.92-7.13-13.78-10.68-23.57-10.68h.01Z"/>
  <path class="cls-1" d="M270.98,1.11V198.03c11.72,16.67,18.61,36.99,18.61,58.92,0,56.65-45.93,102.58-102.58,102.58s-102.58-45.93-102.58-102.58,45.93-102.58,102.58-102.58c13.26,0,25.94,2.52,37.57,7.1V0h-90.2C60.17,0,0,60.17,0,134.39v130.03C0,338.64,60.17,398.8,134.39,398.8h119.28c74.22,0,134.39-60.17,134.39-134.39V134.39c0-68.35-51.03-124.78-117.07-133.28Z"/>
</svg>