<?xml version="1.0" encoding="UTF-8"?>
<svg id="Calque_2" data-name="Calque 2" xmlns="http://www.w3.org/2000/svg" viewBox="0 0 500 500">
  <defs>
    <style>
      .cls-1 {
        fill: #fff;
      }

      .cls-2 {
        fill: #333;
      }
    </style>
  </defs>
  <rect class="cls-2" y="29.6" width="388.05" height="398.8" rx="134.39" ry="134.39"/>
  <circle class="cls-1" cx="187.01" cy="286.55" r="102.58"/>
  <path class="cls-2" d="M210.21,246.58c-7.71,0-15.4,3.66-23.11,11-6.91-7.34-14.73-11-23.43-11s-15.61,3.08-21.54,9.24c-5.92,6.15-8.88,13.64-8.88,22.43v48.26h29.39v-42.21c0-5.82,1.62-8.72,4.88-8.72,1.78,0,3.03,.62,3.74,1.89s1.07,3.52,1.07,6.76v42.28h29.39v-42.21c0-5.82,1.65-8.72,4.95-8.72,1.78,0,3.01,.62,3.69,1.89,.69,1.26,1.02,3.52,1.02,6.76v42.28h29.39v-44.96c0-10.64-2.33-18.73-7-24.28-5.92-7.13-13.78-10.68-23.57-10.68h.01Z"/>
  <rect class="cls-1" x="224.58" width="46.4" height="246.58"/>
</svg>