<?xml version="1.0" encoding="UTF-8"?>
<svg id="Layer_2" data-name="Layer 2" xmlns="http://www.w3.org/2000/svg" viewBox="0 0 500 500">
  <defs>
    <style>
      .cls-1 {
        fill: #fff;
      }

      .cls-2 {
        fill: #0071bb;
      }

      .cls-3 {
        fill: red;
      }

      .cls-4 {
        fill: #ff0;
      }
    </style>
  </defs>
  <rect class="cls-2" width="500" height="500"/>
  <circle class="cls-1" cx="68.4" cy="53.52" r="25.48"/>
  <circle class="cls-1" cx="128.43" cy="53.52" r="25.48"/>
  <circle class="cls-1" cx="188.45" cy="53.52" r="25.48"/>
  <circle class="cls-1" cx="308.5" cy="53.52" r="25.48"/>
  <circle class="cls-1" cx="246.78" cy="53.52" r="25.48"/>
  <circle class="cls-1" cx="432.52" cy="53.52" r="25.48"/>
  <circle class="cls-1" cx="373.06" cy="53.52" r="25.48"/>
  <circle class="cls-1" cx="64.28" cy="129.33" r="25.48"/>
  <circle class="cls-1" cx="124.3" cy="129.33" r="25.48"/>
  <circle class="cls-1" cx="184.33" cy="129.33" r="25.48"/>
  <circle class="cls-1" cx="304.38" cy="129.33" r="25.48"/>
  <circle class="cls-1" cx="242.65" cy="129.33" r="25.48"/>
  <circle class="cls-1" cx="428.39" cy="129.33" r="25.48"/>
  <circle class="cls-1" cx="368.93" cy="129.33" r="25.48"/>
  <circle class="cls-1" cx="60.28" cy="205.33" r="25.48"/>
  <circle class="cls-1" cx="120.3" cy="205.33" r="25.48"/>
  <circle class="cls-4" cx="180.33" cy="205.33" r="25.48"/>
  <circle class="cls-4" cx="300.38" cy="205.33" r="25.48"/>
  <circle class="cls-1" cx="238.65" cy="205.33" r="25.48"/>
  <circle class="cls-1" cx="424.39" cy="205.33" r="25.48"/>
  <circle class="cls-3" cx="364.93" cy="205.33" r="25.48"/>
  <circle class="cls-1" cx="64.28" cy="281.33" r="25.48"/>
  <circle class="cls-1" cx="124.3" cy="281.33" r="25.48"/>
  <circle class="cls-4" cx="184.33" cy="281.33" r="25.48"/>
  <circle class="cls-3" cx="304.38" cy="281.33" r="25.48"/>
  <circle class="cls-1" cx="242.65" cy="281.33" r="25.48"/>
  <circle class="cls-1" cx="428.39" cy="281.33" r="25.48"/>
  <circle class="cls-4" cx="368.93" cy="281.33" r="25.48"/>
  <circle class="cls-1" cx="60.28" cy="366.33" r="25.48"/>
  <circle class="cls-1" cx="120.3" cy="366.33" r="25.48"/>
  <circle class="cls-4" cx="180.33" cy="366.33" r="25.48"/>
  <circle class="cls-4" cx="300.38" cy="366.33" r="25.48"/>
  <circle class="cls-3" cx="238.65" cy="366.33" r="25.48"/>
  <circle class="cls-1" cx="424.39" cy="366.33" r="25.48"/>
  <circle class="cls-4" cx="364.93" cy="366.33" r="25.48"/>
  <circle class="cls-1" cx="64.28" cy="445.33" r="25.48"/>
  <circle class="cls-3" cx="124.3" cy="445.33" r="25.48"/>
  <circle class="cls-3" cx="184.33" cy="445.33" r="25.48"/>
  <circle class="cls-1" cx="304.38" cy="445.33" r="25.48"/>
  <circle class="cls-4" cx="242.65" cy="445.33" r="25.48"/>
  <circle class="cls-3" cx="428.39" cy="445.33" r="25.48"/>
  <circle class="cls-4" cx="368.93" cy="445.33" r="25.48"/>
</svg>