<?xml version="1.0" encoding="utf-8"?>
<!-- Generator: Adobe Illustrator 27.0.0, SVG Export Plug-In . SVG Version: 6.00 Build 0)  -->
<svg version="1.1" xmlns="http://www.w3.org/2000/svg" xmlns:xlink="http://www.w3.org/1999/xlink" x="0px" y="0px"
	 viewBox="0 0 500 500" style="enable-background:new 0 0 500 500;" xml:space="preserve">
<style type="text/css">
	.st0{fill:#FEFFEA;}
	.st1{fill:#FFFFFF;}
</style>
<g id="Layer_2">
	<rect class="st0" width="500" height="500"/>
</g>
<g id="Layer_1">
	<rect y="297.51" width="500" height="202.49"/>
	<g>
		<path d="M196.76,36.89L181.13,90.1h-12.02l-6.98-26.5l-6.05,26.5h-12.1l-17.57-53.21h12.82l9.79,29.45l6.7-29.45h11.95l7.78,29.3
			l8.57-29.3H196.76z"/>
		<path d="M210.36,49.42v7.99H228v12.17h-17.64v8.35h21.74V90.1H198.2V37.32l33.91-0.07v12.17H210.36z"/>
		<path d="M267.75,58.27c2.26,1.68,4.03,3.71,5.33,6.08c1.3,2.38,1.94,4.96,1.94,7.74c0,2.5-0.53,4.84-1.58,7.02
			c-1.06,2.18-2.51,4.09-4.36,5.72c-1.85,1.63-4,2.92-6.44,3.85c-2.45,0.94-5.07,1.4-7.85,1.4h-15.48V37.04l14.04,0.07
			c2.21,0,4.29,0.38,6.26,1.15c1.97,0.77,3.7,1.81,5.18,3.13c1.49,1.32,2.65,2.86,3.49,4.61c0.84,1.75,1.26,3.64,1.26,5.65
			C269.55,54.05,268.95,56.26,267.75,58.27z M251.48,49.2v4.9h1.94c1.2-0.05,2.16-0.34,2.88-0.88c0.72-0.54,1.08-1.07,1.08-1.61
			c0-0.49-0.36-1.01-1.08-1.57c-0.72-0.56-1.7-0.84-2.95-0.84H251.48z M254.79,77.93c1.06,0,2.08-0.16,3.06-0.47
			c0.98-0.31,1.85-0.74,2.59-1.27c0.74-0.53,1.33-1.15,1.76-1.85c0.43-0.7,0.65-1.44,0.65-2.21c0-0.77-0.22-1.52-0.65-2.25
			c-0.43-0.72-1.02-1.35-1.76-1.88c-0.75-0.53-1.61-0.95-2.59-1.27c-0.98-0.31-2-0.47-3.06-0.47h-1.3h-0.14h-1.87v11.66H254.79z"/>
		<path d="M196.76,123.29l-15.62,53.21h-12.02l-6.98-26.5l-6.05,26.5h-12.1l-17.57-53.21h12.82l9.79,29.45l6.7-29.45h11.95
			l7.78,29.3l8.57-29.3H196.76z"/>
		<path d="M220.98,123.58c3.64,0,7.07,0.7,10.28,2.09c3.21,1.39,6.02,3.28,8.41,5.65c2.4,2.38,4.29,5.17,5.68,8.39
			c1.39,3.22,2.09,6.65,2.09,10.3c0,3.65-0.7,7.08-2.09,10.3c-1.39,3.22-3.28,6.01-5.68,8.39c-2.4,2.38-5.2,4.26-8.41,5.65
			c-3.21,1.39-6.64,2.09-10.28,2.09c-3.64,0-7.07-0.7-10.28-2.09c-3.21-1.39-6-3.28-8.38-5.65c-2.37-2.38-4.25-5.17-5.64-8.39
			c-1.39-3.21-2.08-6.65-2.08-10.3c0-3.65,0.69-7.08,2.08-10.3c1.39-3.22,3.27-6.01,5.64-8.39c2.37-2.38,5.17-4.26,8.38-5.65
			C213.91,124.28,217.34,123.58,220.98,123.58z M221.02,164.26c1.97,0,3.82-0.37,5.54-1.12c1.73-0.74,3.24-1.76,4.54-3.06
			s2.32-2.81,3.06-4.54c0.74-1.73,1.12-3.58,1.12-5.54c0-1.97-0.37-3.82-1.12-5.54c-0.74-1.73-1.76-3.24-3.06-4.54
			c-1.3-1.3-2.81-2.31-4.54-3.06c-1.73-0.74-3.58-1.12-5.54-1.12c-1.97,0-3.82,0.37-5.54,1.12c-1.73,0.75-3.24,1.76-4.54,3.06
			c-1.3,1.3-2.32,2.81-3.06,4.54c-0.75,1.73-1.12,3.58-1.12,5.54c0,1.97,0.37,3.82,1.12,5.54c0.74,1.73,1.76,3.24,3.06,4.54
			c1.3,1.3,2.81,2.32,4.54,3.06C217.2,163.89,219.05,164.26,221.02,164.26z"/>
		<path d="M267.1,162.82c-0.62,0.1-1.25,0.17-1.87,0.22c-0.62,0.05-1.27,0.1-1.94,0.14v13.32h-12.17v-52.63h12.17
			c3.02,0.05,5.86,0.6,8.5,1.65c2.64,1.06,4.96,2.47,6.95,4.24c1.99,1.77,3.55,3.83,4.68,6.18c1.13,2.35,1.69,4.86,1.69,7.55
			c0,2.83-0.6,5.45-1.8,7.87c-1.2,2.42-2.88,4.52-5.04,6.29l11.66,18.84H275.6L267.1,162.82z M263.28,150.94
			c1.3-0.05,2.53-0.28,3.71-0.68c1.18-0.41,2.21-0.95,3.1-1.62c0.89-0.67,1.58-1.45,2.09-2.34c0.5-0.89,0.76-1.84,0.76-2.84
			c0-1.01-0.25-1.94-0.76-2.81c-0.5-0.86-1.2-1.63-2.09-2.3c-0.89-0.67-1.92-1.21-3.1-1.62c-1.18-0.41-2.41-0.64-3.71-0.68V150.94z"
			/>
		<path d="M295.25,176.5v-52.92h12.17v40.75h19.3v12.17H295.25z"/>
		<path d="M346.08,123.44c3.5,0.19,6.8,1.03,9.9,2.52c3.1,1.49,5.78,3.43,8.06,5.83c2.28,2.4,4.08,5.18,5.4,8.35
			c1.32,3.17,1.98,6.55,1.98,10.15c0,3.55-0.65,6.88-1.94,9.97c-1.3,3.1-3.08,5.82-5.36,8.17c-2.28,2.35-4.96,4.24-8.03,5.65
			c-3.07,1.42-6.41,2.22-10.01,2.41h-12.17v-53.14h12.17V123.44z M346.08,164.26c1.87-0.19,3.61-0.68,5.22-1.48
			c1.61-0.79,3-1.8,4.18-3.02c1.18-1.22,2.1-2.65,2.77-4.28c0.67-1.63,1.01-3.36,1.01-5.18c0-1.87-0.34-3.66-1.01-5.36
			c-0.67-1.7-1.61-3.22-2.81-4.54c-1.2-1.32-2.59-2.4-4.18-3.24c-1.58-0.84-3.31-1.36-5.18-1.55V164.26z"/>
		<path d="M144.34,222.22v7.99h15.62v12.17h-15.62v20.52h-12.17v-52.85h31.9v12.17H144.34z"/>
		<path d="M201.51,262.9l-2.09-6.41h-16.63l-2.16,6.41h-12.89l18-52.85h11.52l17.06,52.85H201.51z M186.96,244.32h8.57l-4.18-12.82
			L186.96,244.32z"/>
		<path d="M231.32,263.91c-1.68,0-3.35-0.23-5-0.68c-1.66-0.46-3.23-1.16-4.72-2.12c-2.59-1.68-4.61-3.85-6.05-6.52
			s-2.16-5.58-2.16-8.75h12.17c0,1.44,0.31,2.56,0.94,3.35c0.62,0.79,1.18,1.33,1.66,1.62c0.86,0.58,1.8,0.89,2.81,0.94
			c1.01,0.05,1.99-0.14,2.95-0.58c0.67-0.29,1.21-0.65,1.62-1.08c0.41-0.43,0.72-0.85,0.94-1.26c0.22-0.41,0.35-0.8,0.4-1.19
			c0.05-0.38,0.07-0.7,0.07-0.94c0-0.24-0.02-0.55-0.07-0.94c-0.05-0.38-0.18-0.79-0.4-1.22c-0.22-0.43-0.53-0.85-0.94-1.26
			c-0.41-0.41-0.95-0.78-1.62-1.12c-0.53-0.24-1.09-0.46-1.69-0.65c-0.6-0.19-1.24-0.41-1.91-0.65c-1.2-0.38-2.45-0.82-3.74-1.3
			c-1.3-0.48-2.59-1.13-3.89-1.94c-1.68-1.06-3.1-2.38-4.25-3.96c-1.15-1.58-1.98-3.29-2.48-5.11c-0.5-1.82-0.67-3.71-0.5-5.65
			c0.17-1.94,0.71-3.8,1.62-5.58c0.86-1.63,1.94-3.05,3.24-4.25c1.3-1.2,2.74-2.15,4.32-2.84c1.58-0.7,3.29-1.12,5.11-1.26
			c1.82-0.14,3.67,0.02,5.54,0.5c1.82,0.43,3.47,1.12,4.95,2.05c1.48,0.94,2.76,2.06,3.83,3.38c1.07,1.32,1.9,2.8,2.47,4.43
			c0.57,1.63,0.86,3.34,0.86,5.11h-12.11c0-1.1-0.35-1.87-1.04-2.3c-0.7-0.43-1.31-0.72-1.84-0.86c-0.1,0-0.32-0.04-0.68-0.11
			c-0.36-0.07-0.77-0.07-1.22,0c-0.46,0.07-0.92,0.24-1.4,0.5c-0.48,0.26-0.86,0.68-1.15,1.26c-0.38,0.77-0.46,1.57-0.22,2.41
			c0.24,0.84,0.72,1.5,1.44,1.98c0.67,0.38,1.42,0.73,2.23,1.04c0.82,0.31,1.68,0.61,2.59,0.9c0.82,0.24,1.64,0.5,2.48,0.79
			c0.84,0.29,1.69,0.62,2.55,1.01c3.15,1.44,5.62,3.55,7.41,6.34c1.79,2.78,2.68,5.88,2.68,9.29c0,3.36-0.9,6.43-2.68,9.22
			c-1.79,2.79-4.26,4.9-7.41,6.34c-1.24,0.58-2.51,1-3.8,1.26C233.91,263.77,232.61,263.91,231.32,263.91z"/>
		<path d="M282.15,222H272v40.9h-12.17V222h-10.08v-12.17h32.4V222z"/>
	</g>
	<g>
		<path class="st1" d="M71.08,338.05v7.99h17.64v12.17H71.08v8.35h21.74v12.17H58.91v-52.78l33.91-0.07v12.17H71.08z"/>
		<path class="st1" d="M141.86,325.88v52.85h-13.18l-17.28-30.82v30.82H99.23v-52.7h13.25l17.21,30.74v-30.89H141.86z"/>
		<path class="st1" d="M186.64,378.66c-3.41,0-6.73-0.64-9.97-1.91c-3.24-1.27-6.16-3.2-8.75-5.8c-2.5-2.54-4.4-5.41-5.72-8.6
			c-1.32-3.19-1.98-6.56-1.98-10.12c0-3.6,0.66-7,1.98-10.19c1.32-3.19,3.23-6.04,5.72-8.53c2.59-2.59,5.52-4.54,8.78-5.83
			c3.26-1.3,6.59-1.94,9.97-1.94c3.38,0,6.7,0.65,9.94,1.94c3.24,1.3,6.16,3.24,8.75,5.83l-8.57,8.57
			c-1.39-1.39-2.98-2.44-4.75-3.13c-1.78-0.7-3.58-1.04-5.4-1.04s-3.61,0.35-5.36,1.04c-1.75,0.7-3.32,1.74-4.72,3.13
			c-1.34,1.39-2.38,2.95-3.1,4.68c-0.72,1.73-1.08,3.55-1.08,5.47c0,1.92,0.36,3.73,1.08,5.44c0.72,1.71,1.75,3.25,3.1,4.64
			c1.39,1.39,2.96,2.44,4.72,3.13c1.75,0.7,3.54,1.04,5.36,1.04s3.62-0.35,5.4-1.04c1.78-0.7,3.36-1.74,4.75-3.13l8.57,8.64
			c-2.59,2.59-5.5,4.52-8.71,5.8C193.43,378.02,190.1,378.66,186.64,378.66z"/>
		<path class="st1" d="M229.95,325.81c3.64,0,7.07,0.7,10.28,2.09c3.21,1.39,6.02,3.28,8.41,5.65s4.29,5.17,5.68,8.39
			c1.39,3.22,2.08,6.65,2.08,10.3c0,3.65-0.7,7.08-2.08,10.3c-1.39,3.22-3.28,6.01-5.68,8.39s-5.2,4.26-8.41,5.65
			c-3.21,1.39-6.64,2.09-10.28,2.09s-7.07-0.7-10.28-2.09c-3.21-1.39-6-3.28-8.38-5.65c-2.37-2.38-4.25-5.17-5.64-8.39
			c-1.39-3.21-2.08-6.65-2.08-10.3c0-3.65,0.69-7.08,2.08-10.3s3.27-6.01,5.64-8.39c2.37-2.38,5.17-4.26,8.38-5.65
			C222.88,326.5,226.31,325.81,229.95,325.81z M229.98,366.49c1.97,0,3.82-0.37,5.54-1.12c1.73-0.74,3.24-1.76,4.54-3.06
			s2.32-2.81,3.06-4.54c0.74-1.73,1.12-3.58,1.12-5.54c0-1.97-0.37-3.82-1.12-5.54c-0.75-1.73-1.76-3.24-3.06-4.54
			s-2.81-2.32-4.54-3.06c-1.73-0.74-3.58-1.12-5.54-1.12c-1.97,0-3.82,0.37-5.54,1.12c-1.73,0.75-3.24,1.76-4.54,3.06
			s-2.32,2.81-3.06,4.54c-0.75,1.73-1.12,3.58-1.12,5.54c0,1.97,0.37,3.82,1.12,5.54c0.74,1.73,1.76,3.24,3.06,4.54
			s2.81,2.32,4.54,3.06C226.17,366.12,228.02,366.49,229.98,366.49z"/>
		<path class="st1" d="M280.17,378.73c-2.69,0-5.23-0.49-7.63-1.48c-2.4-0.98-4.54-2.39-6.41-4.21c-1.92-1.92-3.4-4.08-4.43-6.48
			c-1.03-2.4-1.57-4.97-1.62-7.7v-33.05h12.17v32.98c0,2.11,0.79,3.96,2.38,5.54c1.58,1.49,3.46,2.23,5.62,2.23
			c1.06,0,2.06-0.22,3.02-0.65c0.96-0.43,1.8-1.01,2.52-1.73c0.72-0.72,1.27-1.56,1.66-2.52c0.38-0.96,0.58-1.99,0.58-3.1v-32.76
			h12.17v32.69c0.05,2.74-0.44,5.33-1.48,7.78s-2.45,4.58-4.25,6.41c-1.8,1.82-3.91,3.28-6.34,4.36s-5,1.64-7.74,1.69H280.17z"/>
		<path class="st1" d="M320.63,365.05c-0.62,0.1-1.25,0.17-1.87,0.22c-0.62,0.05-1.27,0.1-1.94,0.14v13.32h-12.17V326.1h12.17
			c3.02,0.05,5.86,0.6,8.5,1.65c2.64,1.06,4.96,2.47,6.95,4.24c1.99,1.77,3.55,3.83,4.68,6.18c1.13,2.35,1.69,4.86,1.69,7.55
			c0,2.83-0.6,5.45-1.8,7.87c-1.2,2.42-2.88,4.52-5.04,6.29l11.66,18.84h-14.33L320.63,365.05z M316.82,353.17
			c1.3-0.05,2.53-0.28,3.71-0.68c1.18-0.41,2.21-0.95,3.1-1.62c0.89-0.67,1.58-1.45,2.09-2.34c0.5-0.89,0.76-1.84,0.76-2.84
			c0-1.01-0.25-1.94-0.76-2.81c-0.5-0.86-1.2-1.63-2.09-2.3c-0.89-0.67-1.92-1.21-3.1-1.62c-1.18-0.41-2.41-0.64-3.71-0.68V353.17z"
			/>
		<path class="st1" d="M378.95,325.66c3.5,0.19,6.8,1.03,9.9,2.52c3.1,1.49,5.78,3.43,8.06,5.83c2.28,2.4,4.08,5.18,5.4,8.35
			c1.32,3.17,1.98,6.55,1.98,10.15c0,3.55-0.65,6.88-1.94,9.97s-3.08,5.82-5.36,8.17c-2.28,2.35-4.96,4.24-8.03,5.65
			c-3.07,1.42-6.41,2.22-10.01,2.41h-12.17v-53.14h12.17V325.66z M378.95,366.49c1.87-0.19,3.61-0.68,5.22-1.48
			c1.61-0.79,3-1.8,4.18-3.02c1.18-1.22,2.1-2.65,2.77-4.28c0.67-1.63,1.01-3.36,1.01-5.18c0-1.87-0.34-3.66-1.01-5.36
			c-0.67-1.7-1.61-3.21-2.81-4.54c-1.2-1.32-2.59-2.4-4.18-3.24c-1.58-0.84-3.31-1.36-5.18-1.55V366.49z"/>
		<path class="st1" d="M418.98,338.05v7.99h17.64v12.17h-17.64v8.35h21.74v12.17h-33.91v-52.78l33.91-0.07v12.17H418.98z"/>
		<path class="st1" d="M90.63,465.06c-3.41,0-6.73-0.64-9.97-1.91c-3.24-1.27-6.16-3.2-8.75-5.8c-2.5-2.54-4.4-5.41-5.72-8.6
			c-1.32-3.19-1.98-6.56-1.98-10.12c0-3.6,0.66-7,1.98-10.19c1.32-3.19,3.23-6.04,5.72-8.53c2.59-2.59,5.52-4.54,8.78-5.83
			c3.26-1.3,6.59-1.94,9.97-1.94c3.38,0,6.7,0.65,9.94,1.94c3.24,1.3,6.16,3.24,8.75,5.83l-8.57,8.57
			c-1.39-1.39-2.98-2.44-4.75-3.13c-1.78-0.7-3.58-1.04-5.4-1.04c-1.82,0-3.61,0.35-5.36,1.04c-1.75,0.7-3.32,1.74-4.72,3.13
			c-1.34,1.39-2.38,2.95-3.1,4.68c-0.72,1.73-1.08,3.55-1.08,5.47c0,1.92,0.36,3.73,1.08,5.44c0.72,1.7,1.75,3.25,3.1,4.64
			c1.39,1.39,2.96,2.44,4.72,3.13c1.75,0.7,3.54,1.04,5.36,1.04c1.82,0,3.62-0.35,5.4-1.04c1.78-0.7,3.36-1.74,4.75-3.13l8.57,8.64
			c-2.59,2.59-5.5,4.52-8.71,5.8C97.42,464.42,94.09,465.06,90.63,465.06z"/>
		<path class="st1" d="M126.7,451.45c-0.62,0.1-1.25,0.17-1.87,0.22c-0.62,0.05-1.27,0.1-1.94,0.14v13.32h-12.17V412.5h12.17
			c3.02,0.05,5.86,0.6,8.5,1.65c2.64,1.05,4.96,2.47,6.95,4.24c1.99,1.77,3.55,3.83,4.68,6.18c1.13,2.35,1.69,4.87,1.69,7.55
			c0,2.83-0.6,5.45-1.8,7.87c-1.2,2.42-2.88,4.52-5.04,6.29l11.66,18.84H135.2L126.7,451.45z M122.89,439.57
			c1.3-0.05,2.53-0.28,3.71-0.68c1.18-0.41,2.21-0.95,3.1-1.62c0.89-0.67,1.58-1.45,2.09-2.34c0.5-0.89,0.76-1.84,0.76-2.84
			s-0.25-1.94-0.76-2.81c-0.5-0.86-1.2-1.63-2.09-2.3c-0.89-0.67-1.92-1.21-3.1-1.62c-1.18-0.41-2.41-0.64-3.71-0.68V439.57z"/>
		<path class="st1" d="M190.06,424.45h-21.74v7.99h17.64v12.17h-17.64v8.35h21.74v12.17h-33.91v-52.85h33.91V424.45z M167.38,407.89
			l5.83-12.17h10.94l-5.9,12.17H167.38z"/>
		<path class="st1" d="M225.41,458.72h-16.63l-2.16,6.41h-12.89l18-52.85h11.52l17.06,52.85H227.5L225.41,458.72z M221.53,446.55
			l-4.18-12.82l-4.39,12.82H221.53z"/>
		<path class="st1" d="M267.17,424.23h-10.15v40.9h-12.17v-40.9h-10.08v-12.17h32.4V424.23z"/>
		<path class="st1" d="M282.65,465.13h-12.17v-52.92h12.17V465.13z"/>
		<path class="st1" d="M311.2,412.21c3.64,0,7.07,0.7,10.28,2.09c3.21,1.39,6.02,3.28,8.41,5.65s4.29,5.17,5.68,8.39
			c1.39,3.22,2.08,6.65,2.08,10.3c0,3.65-0.7,7.08-2.08,10.3c-1.39,3.22-3.28,6.01-5.68,8.39s-5.2,4.26-8.41,5.65
			c-3.21,1.39-6.64,2.09-10.28,2.09s-7.07-0.7-10.28-2.09c-3.21-1.39-6-3.28-8.38-5.65c-2.37-2.38-4.25-5.17-5.64-8.39
			c-1.39-3.21-2.08-6.65-2.08-10.3c0-3.65,0.69-7.08,2.08-10.3c1.39-3.21,3.27-6.01,5.64-8.39c2.37-2.38,5.17-4.26,8.38-5.65
			C304.13,412.9,307.56,412.21,311.2,412.21z M311.24,452.89c1.97,0,3.82-0.37,5.54-1.12c1.73-0.74,3.24-1.76,4.54-3.06
			s2.32-2.81,3.06-4.54c0.74-1.73,1.12-3.58,1.12-5.54c0-1.97-0.37-3.82-1.12-5.54c-0.75-1.73-1.76-3.24-3.06-4.54
			c-1.3-1.3-2.81-2.31-4.54-3.06c-1.73-0.74-3.58-1.12-5.54-1.12c-1.97,0-3.82,0.37-5.54,1.12c-1.73,0.75-3.24,1.76-4.54,3.06
			c-1.3,1.3-2.32,2.81-3.06,4.54c-0.75,1.73-1.12,3.58-1.12,5.54c0,1.97,0.37,3.82,1.12,5.54c0.74,1.73,1.76,3.24,3.06,4.54
			s2.81,2.32,4.54,3.06C307.42,452.52,309.27,452.89,311.24,452.89z"/>
		<path class="st1" d="M383.16,412.28v52.85h-13.18l-17.28-30.82v30.82h-12.17v-52.7h13.25L371,443.17v-30.89H383.16z"/>
		<path class="st1" d="M400.15,458.86c0,1.73-0.61,3.2-1.84,4.43c-1.22,1.22-2.7,1.84-4.43,1.84s-3.2-0.61-4.43-1.84
			c-1.22-1.22-1.84-2.7-1.84-4.43c0-1.73,0.61-3.2,1.84-4.43c1.22-1.22,2.7-1.84,4.43-1.84s3.2,0.61,4.43,1.84
			C399.54,455.66,400.15,457.13,400.15,458.86z"/>
		<path class="st1" d="M416.57,458.86c0,1.73-0.61,3.2-1.84,4.43c-1.22,1.22-2.7,1.84-4.43,1.84s-3.2-0.61-4.43-1.84
			c-1.22-1.22-1.84-2.7-1.84-4.43c0-1.73,0.61-3.2,1.84-4.43c1.22-1.22,2.7-1.84,4.43-1.84s3.2,0.61,4.43,1.84
			C415.96,455.66,416.57,457.13,416.57,458.86z"/>
		<path class="st1" d="M432.99,458.86c0,1.73-0.61,3.2-1.84,4.43c-1.22,1.22-2.7,1.84-4.43,1.84s-3.2-0.61-4.43-1.84
			c-1.22-1.22-1.84-2.7-1.84-4.43c0-1.73,0.61-3.2,1.84-4.43c1.22-1.22,2.7-1.84,4.43-1.84s3.2,0.61,4.43,1.84
			C432.38,455.66,432.99,457.13,432.99,458.86z"/>
	</g>
</g>
</svg>
